<svg width="115" height="120" viewBox="0 0 115 120" fill="none" xmlns="http://www.w3.org/2000/svg">
<path d="M56.1993 38.7541C61.5615 38.7541 66.0021 34.3135 66.0021 28.9513C66.0021 23.589 61.6453 19.1484 56.2831 19.1484C56.1993 19.1484 56.0317 19.1484 55.948 19.1484C50.6695 19.316 46.3965 23.6728 46.3965 28.9513C46.3965 34.3135 50.7533 38.7541 56.1993 38.7541Z" fill="white"/>
<path d="M42.9604 41.3511H20.2547C18.4952 44.7863 17.2384 48.5566 16.4844 52.4945H33.2413L42.9604 41.3511Z" fill="white"/>
<path d="M96.8335 55.4272H71.1953L80.1603 65.7328H96.5821C96.8335 63.8057 97.001 61.7949 97.001 59.7841C97.0848 58.3597 97.001 56.9354 96.8335 55.4272Z" fill="white"/>
<path d="M65.4996 47.3835C63.2374 51.1538 60.9752 54.6728 57.6238 57.4377C57.5401 57.5215 57.5401 57.5215 57.4563 57.6053C56.6184 58.2755 55.6968 58.9458 54.6914 59.5323C49.5805 62.5486 44.4696 62.6324 39.1912 62.7161C34.0803 62.7999 28.8856 62.8837 23.7748 65.8162C22.1829 66.7378 20.7585 67.827 19.418 69.1676C21.345 68.8324 23.4396 69.2514 25.0315 70.5081C25.4505 70.0892 25.8694 69.7541 26.3721 69.5027C28.0478 68.4973 30.0586 68.1622 32.0695 68.6649C33.7452 69.0838 35.2533 70.0892 36.2587 71.4298C41.5372 68.0784 47.821 66.2351 54.5238 66.2351C55.4454 66.2351 56.2833 66.3189 57.2049 66.3189C57.2049 66.2351 57.2887 66.1513 57.3725 66.0675L68.1807 53.6674C68.3483 53.416 68.6834 53.3322 68.9348 53.3322H76.643C76.643 49.0592 80.0782 45.5402 84.3512 45.5402C84.9377 45.5402 85.5242 45.624 86.1107 45.7078C87.1999 43.0267 89.6296 41.2672 92.4783 40.9321C90.8864 37.832 88.8756 34.8996 86.5296 32.3022C86.4458 32.386 86.362 32.386 86.1945 32.386C82.5079 32.8887 79.3241 33.9779 76.3078 35.6536C71.0294 38.8375 68.0969 43.1943 65.4996 47.3835Z" fill="white"/>
<path d="M57.0367 86.6787V68.4974C56.1988 68.4136 55.361 68.4136 54.5231 68.4136C51.0879 68.4136 47.7366 68.9163 44.5527 69.9217C46.8987 70.1731 48.8258 72.1839 48.8258 74.6136V78.8029C48.8258 81.0651 47.2338 82.9083 45.1392 83.4111V85.5057C46.0609 85.4219 46.9825 85.3381 47.9879 85.3381C51.0042 85.3381 54.1042 85.8408 57.0367 86.6787Z" fill="white"/>
<path d="M42.9608 83.4111C40.8662 82.9084 39.2743 81.0651 39.2743 78.8029V74.6137C39.2743 73.4407 39.6932 72.3515 40.4473 71.5137C33.9959 74.6137 28.8012 79.8084 25.7012 86.5111C27.0417 88.0193 28.4661 89.4436 29.9742 90.7842C33.8283 88.1869 38.1851 86.4274 42.8771 85.7571V83.4111H42.9608Z" fill="white"/>
<path d="M80.7478 70.4247C80.8316 70.4247 80.9154 70.4247 80.9992 70.4247C84.4344 70.4247 87.1155 73.1896 87.1155 76.6248V82.4897C87.1155 84.0816 86.529 85.5897 85.4398 86.6789H86.8641H86.9479C91.5561 81.4005 94.7399 75.0328 96.1643 67.9111H80.6641V70.4247H80.7478Z" fill="white"/>
<path d="M22.6848 63.9733C26.0362 62.0462 29.3876 61.2084 32.6552 60.8732V54.5894H16.1496C15.8982 56.2651 15.8145 58.0245 15.8145 59.784C15.8145 62.884 16.1496 65.9003 16.8199 68.8328C18.6631 66.8219 20.5902 65.23 22.6848 63.9733Z" fill="white"/>
<path d="M46.0605 39.5919L57.6228 52.9137C57.7903 53.0812 57.8741 53.3326 57.8741 53.5839V54.338C60.1363 51.992 61.812 49.2271 63.6553 46.2947C66.3364 41.8541 69.5202 37.2459 75.2176 33.9783C78.1501 32.3026 81.2501 31.2134 84.6853 30.6269C79.0717 25.0971 71.8662 21.243 63.8228 19.7349C66.4202 21.9133 68.0959 25.1809 68.0959 28.8674C68.0959 35.4864 62.7336 40.8486 56.1984 40.8486C49.5794 40.8486 44.301 35.4864 44.301 28.8674C44.301 25.2647 45.8929 22.0808 48.4064 19.8187C36.9279 22.1646 27.2089 29.3701 21.4277 39.1729H45.3064C45.6415 39.2567 45.8929 39.3405 46.0605 39.5919Z" fill="white"/>
<path d="M82.0879 91.4545C83.0933 90.6167 84.0987 89.6951 85.0204 88.7734H82.0879V91.4545Z" fill="white"/>
<path d="M72.7038 97.1517C75.3011 95.9787 77.7309 94.6382 79.9931 92.9625V88.6895H62.3145C66.3361 90.7841 69.9389 93.6328 72.7038 97.1517Z" fill="white"/>
<path d="M34.4154 72.6027C33.6613 71.6811 32.6559 71.0108 31.4829 70.6756C30.0586 70.3405 28.6342 70.5918 27.4612 71.2621C26.8747 71.5973 26.372 72.0162 25.9531 72.6027C25.7855 72.854 25.4504 73.0216 25.199 73.0216C24.8639 73.0216 24.6125 72.9378 24.3612 72.6865C22.6017 70.927 19.9206 70.5918 17.826 71.9324C17.7422 71.9324 17.7422 72.0162 17.7422 72.0162C19.1665 76.6244 21.4287 80.8974 24.3612 84.5839C26.7072 79.8082 30.2261 75.7027 34.4154 72.6027Z" fill="white"/>
<path d="M47.905 87.5161C42.0401 87.5161 36.5103 89.1918 31.8184 92.2081C38.6887 97.4865 47.2348 100.587 56.4511 100.587C61.3944 100.587 66.1701 99.6649 70.6107 97.9892C65.2485 91.454 56.7862 87.5161 47.905 87.5161Z" fill="white"/>
<path d="M46.6458 78.8032V74.6139C46.6458 73.1896 45.4728 72.0166 44.0485 72.0166C42.6242 72.0166 41.4512 73.1896 41.4512 74.6139V78.8032C41.4512 79.8924 42.1214 80.7302 42.9593 81.1491V77.8815C42.9593 77.295 43.462 76.7923 44.0485 76.7923C44.635 76.7923 45.1377 77.295 45.1377 77.8815V81.1491C45.9755 80.7302 46.6458 79.8086 46.6458 78.8032Z" fill="white"/>
<path d="M87.7853 47.3839C87.7015 47.719 87.5339 47.9704 87.2826 48.0541C87.0312 48.2217 86.6961 48.2217 86.4447 48.1379C85.7745 47.8866 85.1042 47.719 84.4339 47.719C81.3339 47.719 78.8203 50.2326 78.8203 53.3326H96.6665C96.08 49.7298 95.0746 46.2947 93.5664 43.1108C93.4827 43.1108 93.3989 43.1108 93.3151 43.1108C90.634 43.1108 88.4556 44.8703 87.7853 47.3839Z" fill="white"/>
<path d="M82.0874 86.3437C83.7631 85.841 85.0199 84.3329 85.0199 82.4896V76.6247C85.0199 74.3625 83.1766 72.603 80.9982 72.603C78.8198 72.603 76.9766 74.4463 76.9766 76.6247V82.4896C76.9766 84.3329 78.2333 85.9248 79.909 86.3437V81.1491C79.909 80.5626 80.4117 80.0599 80.9982 80.0599C81.5847 80.0599 82.0874 80.5626 82.0874 81.1491V86.3437Z" fill="white"/>
<path d="M78.6525 70.9274V67.2408L68.8497 56.0137L59.0469 67.2408V86.5951H76.4741C75.4687 85.5059 74.7984 83.9978 74.7984 82.4059V76.5409C74.8822 74.0274 76.4741 71.849 78.6525 70.9274ZM72.2849 77.1274C72.1173 77.295 71.7822 77.4626 71.5308 77.4626H65.6659C65.0794 77.4626 64.5767 76.9599 64.5767 76.3734V71.0949C64.5767 70.0057 64.9956 69.0003 65.7497 68.2463C66.5037 67.4922 67.5091 67.0733 68.5983 67.0733C70.7767 67.0733 72.62 68.8327 72.62 71.0949V76.3734C72.5362 76.6247 72.4524 76.8761 72.2849 77.1274Z" fill="white"/>
<path d="M45.3071 41.9375L34.834 54.0025V60.7053C36.3421 60.6215 37.7665 60.6215 39.1908 60.5377C44.2179 60.4539 48.9936 60.3702 53.6856 57.689C54.4396 57.2701 55.1937 56.7674 55.864 56.1809V53.9187L45.3071 41.9375ZM46.6476 56.0134H44.7206C44.3854 56.0134 44.1341 55.762 44.1341 55.4269V53.1647C44.1341 52.3268 44.8044 51.5728 45.726 51.5728C46.5639 51.5728 47.3179 52.243 47.3179 53.1647V55.4269C47.3179 55.762 46.9828 56.0134 46.6476 56.0134Z" fill="white"/>
<path d="M6.76562 78.6353C7.4359 79.138 8.18997 79.2218 9.19538 78.8867C10.0332 78.6353 10.5359 78.0488 10.7873 77.211C11.0386 76.4569 10.9549 75.7028 10.7035 74.865L10.0332 72.8542C9.86566 72.4352 9.69809 72.1839 9.44674 72.0163C9.19538 71.8487 8.77646 71.8487 8.35754 72.0163L0.900687 74.4461C0.481763 74.6136 0.230408 74.7812 0.0628386 75.0325C-0.0209462 75.2839 -0.0209462 75.619 0.0628386 76.038L0.816903 78.3002C1.15204 79.2218 1.65475 79.9759 2.32503 80.4786C2.82773 80.8137 3.33044 80.9813 3.91694 80.9813C4.25208 80.9813 4.58722 80.8975 5.00614 80.8137C6.09535 80.5624 6.68184 79.7245 6.76562 78.6353ZM4.25208 78.7191C3.83315 78.8867 3.49801 78.8029 3.24666 78.6353C2.9953 78.4677 2.74395 78.0488 2.4926 77.4623L2.15746 76.2893L4.671 75.4515L5.08993 76.6245C5.34128 77.7975 5.08993 78.4677 4.25208 78.7191ZM6.68184 75.9542L6.3467 75.0325L8.44132 74.3623L8.77646 75.3677C8.86024 75.7028 8.86024 76.038 8.77646 76.2893C8.69268 76.5407 8.44132 76.7082 8.10618 76.8758C7.68725 77.0434 7.01698 77.0434 6.68184 75.9542Z" fill="white"/>
<path d="M16.8201 88.1031C16.9039 87.8518 16.9039 87.5166 16.7364 87.1815L14.8093 83.9139C14.3904 83.1598 13.9715 82.8247 13.4688 82.6571C12.966 82.5733 12.3796 82.6571 11.7093 83.0761L6.84975 86.0085C6.34705 86.3437 6.17947 86.1761 6.17947 86.0923C6.0119 85.8409 5.84434 85.6734 5.67677 85.422C5.5092 85.2545 5.17406 85.0031 4.50378 85.3382C4.08485 85.5896 3.74972 86.0923 4.41999 87.1815C5.17406 88.4383 6.26326 88.7734 7.60382 88.0193L12.7985 84.9193C13.0498 84.7517 13.2174 84.8355 13.3012 85.0031L14.6417 87.1815L8.35788 90.9518C7.93896 91.2032 7.6876 91.4545 7.60382 91.7897C7.52003 92.041 7.60382 92.2924 7.77139 92.5437C7.93896 92.8789 8.19031 93.0464 8.52545 93.0464H8.60923C8.86059 93.0464 9.11194 92.9627 9.44708 92.7951L16.2337 88.6896C16.485 88.6896 16.6526 88.4383 16.8201 88.1031Z" fill="white"/>
<path d="M21.8461 93.2977C21.3434 92.7949 20.6732 92.7112 19.9191 93.0463L12.2109 96.3977C12.0433 96.4815 11.8758 96.5653 11.7082 96.7328C11.4568 96.9842 11.373 97.1518 11.373 97.4869C11.373 97.7382 11.4568 97.9896 11.7082 98.241C11.9595 98.4923 12.3785 98.7437 13.0487 98.4085L14.4731 97.7383L17.0704 100.503L16.4001 101.927C16.065 102.682 16.2326 103.1 16.4839 103.352C16.6515 103.603 16.9028 103.687 17.1542 103.687H17.238C17.4893 103.687 17.6569 103.603 17.9083 103.436C17.992 103.352 18.1596 103.184 18.2434 102.933L22.0137 95.3085C22.5164 94.2193 22.1813 93.6328 21.8461 93.2977ZM19.7515 95.2247L17.992 98.5761L16.3164 96.8166L19.7515 95.2247Z" fill="white"/>
<path d="M32.3207 101.844L29.0531 99.749C27.7963 98.9111 26.7071 99.1625 25.8693 100.419L23.2719 104.441C22.853 105.027 22.6017 105.279 22.4341 105.363C22.2665 105.446 22.0989 105.53 22.0152 105.446C21.4287 105.195 20.926 105.279 20.5908 105.865L19.6692 107.29C19.5016 107.541 19.4178 107.792 19.5016 108.044C19.5854 108.295 19.753 108.546 20.0043 108.714C20.2557 108.882 20.507 108.965 20.7584 108.882C21.0097 108.798 21.2611 108.63 21.4287 108.379L21.9314 107.709H22.0152C22.1827 107.792 22.2665 107.792 22.3503 107.876L26.7071 110.725L26.2044 111.479C26.0368 111.73 25.9531 111.982 26.0368 112.233C26.1206 112.484 26.2044 112.736 26.5395 112.903C26.7909 113.071 26.9585 113.155 27.2098 113.155C27.545 113.155 27.7963 112.987 28.0477 112.652L29.0531 111.06C29.3044 110.641 29.2207 110.306 29.1369 110.055C29.0531 109.887 28.8855 109.803 28.6342 109.636L32.572 103.603C33.1585 102.598 32.6558 102.011 32.3207 101.844ZM24.026 106.619C24.3611 106.368 24.6963 105.949 25.0314 105.446L27.6287 101.508C27.7963 101.257 27.8801 101.257 28.1315 101.425L30.3099 102.849L26.7071 108.379L24.026 106.619Z" fill="white"/>
<path d="M43.5485 106.452C43.1295 106.284 42.7106 106.368 42.2079 106.703L36.0916 110.976L37.8511 105.865C38.27 104.776 37.6835 104.357 37.2646 104.19C36.9295 104.106 36.5943 104.106 36.343 104.274C36.0916 104.441 35.924 104.693 35.7565 105.111L33.0754 112.82C32.7402 113.825 33.2429 114.16 33.5781 114.328C33.997 114.495 34.4997 114.412 34.9186 114.076L41.0349 109.803L39.2754 114.914C38.8565 116.003 39.443 116.422 39.8619 116.506C39.9457 116.506 40.1133 116.59 40.2809 116.59C40.616 116.59 41.1187 116.422 41.3701 115.585L44.0512 107.96C44.4701 106.955 43.9674 106.62 43.5485 106.452Z" fill="white"/>
<path d="M56.7015 108.714C56.4501 108.462 56.0312 108.295 55.6961 108.211C54.942 108.127 54.3555 108.546 54.1041 109.3L52.0933 114.997L51.0041 109.049C50.8365 108.295 50.3338 107.792 49.5798 107.792C49.1608 107.792 48.8257 107.876 48.4906 108.127C48.1554 108.378 47.9879 108.714 47.9041 109.049L46.1446 116.757C46.0608 117.008 46.0608 117.092 46.0608 117.092C45.977 118.098 46.5635 118.265 46.9824 118.265C47.4014 118.265 47.6527 118.181 47.9041 117.93C48.0716 117.762 48.1554 117.511 48.2392 117.092L49.496 111.311L50.669 117.176C50.8365 118.181 51.423 118.433 51.842 118.516C52.2609 118.6 52.8474 118.349 53.2663 117.427L55.2771 111.814L55.6123 117.679C55.6123 118.098 55.6961 118.349 55.7798 118.516C55.9474 118.768 56.1988 118.935 56.6177 119.019H56.7015C56.9528 119.019 57.2042 118.935 57.3718 118.768C57.6231 118.516 57.7069 118.265 57.7069 117.93L57.1204 109.719C57.1204 109.3 56.9528 108.965 56.7015 108.714Z" fill="white"/>
<path d="M69.6867 107.793C69.5191 106.703 68.8489 106.62 68.4299 106.703C68.011 106.787 67.6759 107.122 67.4245 107.625L64.2407 114.328L63.3191 109.049C63.0677 107.876 62.3974 107.792 61.9785 107.876C61.5596 107.96 60.9731 108.211 61.1407 109.384L62.565 117.428C62.6488 117.847 62.8164 118.182 63.0677 118.349C63.2353 118.433 63.4029 118.517 63.5704 118.517C63.6542 118.517 63.738 118.517 63.8218 118.517C64.2407 118.433 64.6596 118.098 64.8272 117.679L68.011 110.976L68.9327 116.255C69.1002 117.428 69.8543 117.428 70.2732 117.344C70.6083 117.26 70.7759 117.176 70.9435 116.925C71.1111 116.674 71.1948 116.255 71.1111 115.836L69.6867 107.793Z" fill="white"/>
<path d="M78.5678 104.022C77.73 103.687 76.7246 103.771 75.7191 104.19L73.6245 105.111C72.8705 105.447 72.6191 106.117 72.9542 106.871L76.0543 114.16C76.2219 114.579 76.3894 114.83 76.6408 114.998C76.8084 115.082 76.8921 115.082 77.0597 115.082C77.2273 115.082 77.3948 115.082 77.4786 114.998C77.8138 114.83 77.9813 114.663 78.0651 114.328C78.1489 114.076 78.0651 113.741 77.8976 113.322L76.9759 111.228L78.4003 110.557C78.903 110.306 79.3219 110.055 79.657 109.72C80.1597 109.217 80.4949 108.63 80.5787 107.876C80.6624 107.206 80.5787 106.536 80.2435 105.865C80.076 104.944 79.4057 104.274 78.5678 104.022ZM78.4003 108.044C78.2327 108.379 77.8976 108.714 77.4786 108.882L76.3894 109.384L75.2164 106.62L76.3056 106.117C76.8083 105.865 77.2273 105.865 77.5624 105.949C77.8975 106.033 78.1489 106.368 78.3165 106.787C78.5678 107.29 78.5678 107.709 78.4003 108.044Z" fill="white"/>
<path d="M88.6237 97.9899C87.2832 97.6547 85.9426 97.9061 84.7696 98.8277C83.5966 99.7494 82.9263 100.839 82.8426 102.263C82.7588 103.52 83.1777 104.86 84.0155 106.033C84.8534 107.206 85.9426 108.044 87.2832 108.295C87.6183 108.379 88.0372 108.463 88.3724 108.463C89.294 108.463 90.2156 108.128 91.1373 107.541C92.3102 106.62 92.9805 105.531 93.0643 104.106C93.1481 102.849 92.7292 101.509 91.8913 100.336C90.9697 99.0791 89.8805 98.325 88.6237 97.9899ZM86.0264 100.503C86.6129 100.084 87.2832 99.9169 87.9534 100.084C88.6237 100.252 89.3778 100.755 90.0481 101.676C90.5508 102.43 90.8859 103.185 90.8859 103.855C90.8859 104.693 90.6345 105.363 89.8805 105.866C89.2102 106.368 88.4561 106.452 87.7021 106.201C87.0318 105.949 86.4453 105.447 85.8588 104.693C85.1885 103.771 84.9372 102.933 84.9372 102.263C85.1047 101.509 85.4399 100.922 86.0264 100.503Z" fill="white"/>
<path d="M98.0088 93.0467C98.0926 92.2088 97.7575 91.5385 97.0034 90.8683C96.3331 90.2818 95.5791 90.1142 94.7412 90.3655C93.9872 90.5331 93.4007 90.952 92.8142 91.6223L91.4736 93.2142C91.2223 93.5494 91.0547 93.8845 91.0547 94.1359C91.0547 94.471 91.2223 94.8062 91.5574 95.0575L97.5061 100.252C97.8413 100.504 98.0926 100.671 98.344 100.671H98.4278C98.6791 100.671 99.0142 100.42 99.2656 100.085L100.858 98.2413C101.528 97.4873 101.863 96.6494 101.863 95.8116C101.863 94.8899 101.528 94.0521 100.774 93.3818C100.02 92.6277 99.0142 92.4602 98.0088 93.0467ZM99.3494 97.2359L98.5953 98.1575L96.5845 96.3981L97.4223 95.4764C98.1764 94.6386 98.8467 94.5548 99.517 95.1413C99.8521 95.4764 100.271 96.0629 99.3494 97.2359ZM95.8304 94.3872L95.1601 95.1413L93.5682 93.7169L94.2385 92.8791C94.4899 92.6277 94.7412 92.4602 95.0764 92.3764C95.3277 92.2926 95.5791 92.4602 95.9142 92.6277C96.1656 93.0467 96.5845 93.5494 95.8304 94.3872Z" fill="white"/>
<path d="M109.236 83.9143C108.985 83.7467 108.566 83.7467 108.147 83.8305L103.036 85.2549L102.03 81.1494C101.863 80.5629 101.695 80.2278 101.444 80.0602C101.193 79.8926 100.941 79.8926 100.69 79.9764C100.438 80.0602 100.187 80.2278 100.103 80.4791C99.9358 80.7305 99.9358 81.1494 100.103 81.6521L101.276 86.1765L99.1817 85.0035C98.7628 84.7522 98.4276 84.6684 98.0925 84.7522C97.8411 84.8359 97.5898 85.0035 97.506 85.2549C97.3384 85.5062 97.3384 85.7576 97.4222 86.0089C97.506 86.3441 97.7574 86.5954 98.1763 86.8468L105.214 90.7847C105.549 90.9522 105.801 91.036 106.052 91.036C106.555 91.036 106.806 90.7009 106.89 90.4495C107.057 90.1144 107.309 89.3603 106.22 88.8576L103.622 87.4333L103.874 87.1819L108.649 86.0089C109.236 85.8414 109.571 85.6738 109.739 85.3386C109.906 85.0873 109.906 84.8359 109.822 84.5846C109.655 84.2494 109.487 84.0819 109.236 83.9143Z" fill="white"/>
<path d="M113.842 72.5191C113.758 72.2678 113.507 72.1002 113.255 72.0164C113.088 71.9326 112.92 71.9326 112.669 71.9326L104.207 72.4353C103.201 72.5191 102.782 73.1056 102.615 73.5245C102.447 74.1948 102.699 74.7813 103.369 75.3678L110.155 80.4787C110.323 80.5625 110.49 80.6462 110.658 80.73C110.742 80.73 110.909 80.8138 110.993 80.8138C111.161 80.8138 111.328 80.73 111.496 80.6462C111.747 80.4787 111.915 80.3111 111.999 79.976C112.082 79.6408 112.082 79.1381 111.496 78.7192L110.155 77.7976L111.245 74.1948L112.836 74.111C113.674 74.111 113.926 73.6921 114.009 73.357C113.926 73.1056 113.926 72.7705 113.842 72.5191ZM108.982 74.2786L108.312 76.6246L105.296 74.4462L108.982 74.2786Z" fill="white"/>
<path d="M3.66585 56.7675C3.66585 57.6891 2.91178 58.4432 1.99015 58.4432C1.06852 58.4432 0.314453 57.6891 0.314453 56.7675C0.314453 55.8459 1.06852 55.0918 1.99015 55.0918C2.91178 55.0918 3.66585 55.8459 3.66585 56.7675Z" fill="white"/>
<path d="M110.324 56.7675C110.324 57.6891 109.57 58.4432 108.648 58.4432C107.727 58.4432 106.973 57.6891 106.973 56.7675C106.973 55.8459 107.727 55.0918 108.648 55.0918C109.654 55.0918 110.324 55.8459 110.324 56.7675Z" fill="white"/>
<path d="M11.709 36.073C11.4577 36.073 11.2063 36.073 10.955 36.073C10.7036 36.073 10.3685 36.073 9.94955 35.9892L9.1117 35.9054C8.27385 35.9054 7.60357 35.9892 7.01708 36.1567C6.51437 36.3243 6.09545 36.7432 5.76031 37.2459L3.49812 32.554C3.49812 32.4702 3.33055 32.4702 3.33055 32.4702C3.24677 32.4702 3.16298 32.554 3.16298 32.6378L2.82784 33.3081C2.82784 33.3918 2.82784 33.3918 2.82784 33.4756L5.17382 38.2514V38.4189L1.57107 36.827C1.48728 36.7432 1.31972 36.827 1.31972 36.9108L1.06836 37.4973C1.06836 37.5811 1.06836 37.5811 1.06836 37.6649C1.06836 37.7487 1.15214 37.7487 1.15214 37.7487L9.36306 41.4352H9.44684C9.53063 41.4352 9.61441 41.3514 9.61441 41.2676L9.86576 40.6811C9.86576 40.5973 9.86576 40.5973 9.86576 40.5136C9.86576 40.4298 9.78198 40.4298 9.78198 40.4298L6.01166 38.7541L6.09545 38.5865C6.43059 37.8324 6.76573 37.4135 7.26844 37.1622C7.68736 36.9108 8.35764 36.827 9.02792 36.9108C10.3685 36.9946 11.2063 36.9946 11.4577 36.9946C11.5415 36.9946 11.6252 36.9108 11.6252 36.9108L11.8766 36.3243C11.8766 36.2405 11.8766 36.1567 11.8766 36.1567C11.8766 36.073 11.7928 35.9892 11.709 36.073Z" fill="white"/>
<path d="M14.1377 29.2861C13.8025 28.8672 13.4674 28.5321 12.9647 28.1969C12.1269 27.6104 11.2052 27.4428 10.3674 27.6104C9.52952 27.778 8.77545 28.1969 8.27274 29.0348C7.77004 29.7888 7.68625 30.6267 7.85382 31.5483C8.02139 32.4699 8.60789 33.1402 9.61331 33.8105C10.2836 34.2294 11.0376 34.4808 11.7079 34.4808C11.8755 34.4808 12.0431 34.4808 12.2944 34.397C13.1323 34.2294 13.8863 33.8105 14.3053 32.9726C14.4728 32.6375 14.6404 32.3024 14.7242 31.8834C14.808 31.4645 14.808 31.0456 14.7242 30.6267C14.5566 30.124 14.389 29.705 14.1377 29.2861ZM13.3836 32.3862C13.0485 32.8889 12.6296 33.224 11.9593 33.3078C11.289 33.3916 10.7025 33.224 10.0322 32.8051C9.44574 32.3862 9.02681 31.8834 8.77546 31.2969C8.5241 30.7105 8.60788 30.124 9.02681 29.5375C9.19438 29.2023 9.44573 29.0348 9.78087 28.8672C10.0322 28.6996 10.3674 28.6158 10.6187 28.6158C10.9539 28.6158 11.2052 28.6996 11.5404 28.7834C11.7917 28.8672 12.1268 29.0348 12.3782 29.1185C13.0485 29.5375 13.4674 30.0402 13.635 30.7105C13.8025 31.297 13.7188 31.8834 13.3836 32.3862Z" fill="white"/>
<path d="M13.804 23.2537L14.9769 21.8293C14.9769 21.7455 15.0607 21.7455 15.0607 21.6617C15.0607 21.578 15.0607 21.578 14.9769 21.4942L14.558 21.159C14.4742 21.0752 14.3067 21.0752 14.2229 21.159L11.1228 24.8456C11.1228 24.9293 11.0391 24.9293 11.0391 25.0131C11.0391 25.0969 11.0391 25.0969 11.1228 25.1807L11.5418 25.5158C11.6256 25.5996 11.7931 25.5996 11.8769 25.5158L13.0499 24.0915L17.4067 27.778C17.4067 27.778 17.4905 27.8618 17.5743 27.8618C17.6581 27.8618 17.6581 27.8618 17.7418 27.778L18.1608 27.2753C18.1608 27.1915 18.2446 27.1915 18.2446 27.1078C18.2446 27.024 18.2446 27.024 18.1608 26.9402L13.804 23.2537Z" fill="white"/>
<path d="M18.411 18.4777L19.7515 17.2209C19.8353 17.1371 19.8353 16.9696 19.7515 16.8858L19.4164 16.5506C19.3326 16.4668 19.165 16.4668 19.0813 16.5506L15.5623 19.902C15.5623 19.902 15.4785 19.9858 15.4785 20.0696C15.4785 20.1534 15.4785 20.1534 15.5623 20.2372L15.8974 20.6561C15.8974 20.6561 15.9812 20.7399 16.065 20.7399C16.1488 20.7399 16.1488 20.7399 16.2326 20.6561L17.5731 19.3993L21.511 23.5048C21.511 23.5048 21.5948 23.5886 21.6786 23.5886C21.7624 23.5886 21.7624 23.5886 21.8462 23.5048L22.3489 23.0858C22.4327 23.0021 22.4327 22.8345 22.3489 22.7507L18.411 18.4777Z" fill="white"/>
<path d="M27.8799 17.0535C27.7961 17.0535 27.7961 16.9697 27.7123 17.0535C27.6285 17.0535 27.6285 17.1372 27.5448 17.1372C27.2934 17.64 26.8745 18.0589 26.3718 18.394C25.8691 18.8129 25.2826 18.8967 24.6961 18.8129C24.1934 18.7292 23.6069 18.394 23.1042 17.7237L26.7069 15.0426C26.7907 14.9588 26.7907 14.8751 26.7907 14.7913C26.7907 14.7075 26.7069 14.5399 26.5393 14.4561C26.3718 14.2886 26.288 14.121 26.1204 13.9534C25.9528 13.7859 25.7015 13.6183 25.4501 13.4507C25.1988 13.2831 24.8636 13.1994 24.6123 13.1156C24.2771 13.0318 23.942 13.0318 23.6069 13.1156C23.2717 13.1994 22.8528 13.3669 22.5177 13.6183C21.7636 14.121 21.4285 14.8751 21.3447 15.7967C21.2609 16.7183 21.596 17.5562 22.2663 18.4778C22.8528 19.3156 23.6069 19.8184 24.4447 19.9859C24.6123 19.9859 24.8636 20.0697 25.0312 20.0697C25.7015 20.0697 26.288 19.8184 26.9583 19.3994C27.6285 18.8967 28.1312 18.3102 28.3826 17.8075C28.4664 17.7237 28.3826 17.64 28.2988 17.5562L27.8799 17.0535ZM25.5339 14.8751L22.6852 17.0535C22.5177 16.6345 22.4339 16.2156 22.4339 15.7129C22.4339 15.2102 22.6852 14.7913 23.1042 14.4561C23.3555 14.2886 23.6069 14.121 23.942 14.121C24.0258 14.121 24.1096 14.121 24.1934 14.121C24.3609 14.121 24.5285 14.121 24.6961 14.2048C24.9474 14.2886 25.115 14.4561 25.2826 14.5399C25.3664 14.6237 25.4501 14.7075 25.5339 14.8751Z" fill="white"/>
<path d="M34.8343 13.451C34.8343 13.3672 34.7506 13.3672 34.6668 13.3672C34.583 13.3672 34.583 13.3672 34.4992 13.3672L34.1641 13.5347L31.483 8.50765C31.3992 8.42386 31.3154 8.34008 31.2316 8.42387L27.8802 10.2671C27.7964 10.3509 27.7126 10.4347 27.7964 10.5185L28.6343 12.0266C29.137 12.9482 29.4721 13.8699 29.6397 14.7077C29.7235 15.1267 29.7235 15.5456 29.7235 15.9645L29.3883 16.1321C29.3046 16.1321 29.3046 16.2159 29.3046 16.2996C29.3046 16.3834 29.3046 16.3834 29.3046 16.4672L30.5613 18.6456C30.5613 18.7294 30.6451 18.7294 30.7289 18.7294H30.8127L31.3154 18.478C31.3992 18.3943 31.483 18.3105 31.3992 18.2267L30.5613 16.6348L34.3316 14.5402L35.2533 16.1321C35.3371 16.2159 35.4208 16.2996 35.5046 16.2159L36.0073 15.9645C36.0911 15.8807 36.1749 15.7969 36.0911 15.7131L34.8343 13.451ZM30.8965 9.68064L33.2424 14.0374L30.6451 15.4618C30.6451 15.0429 30.5613 14.7077 30.5613 14.3726C30.3938 13.451 30.0586 12.5293 29.5559 11.6077L29.0532 10.6861L30.8965 9.68064Z" fill="white"/>
<path d="M43.3796 10.2672C43.2958 10.0996 43.1282 9.93205 42.9607 9.76448C42.7931 9.51313 42.6255 9.34556 42.6255 9.34556C42.2066 8.84285 41.7877 8.50771 41.285 8.34014C40.9498 8.25636 40.5309 8.17257 40.112 8.25636L41.5363 4.90496C41.5363 4.82118 41.5363 4.7374 41.5363 4.65361C41.4525 4.56983 41.3688 4.56982 41.285 4.56982L40.5309 4.82118C40.4471 4.82118 40.4471 4.90496 40.3633 4.90496L39.0228 8.34014L38.1849 5.8266C38.1849 5.74281 38.0174 5.65903 37.9336 5.65903L37.3471 5.8266C37.2633 5.8266 37.2633 5.91038 37.2633 5.91038C37.2633 5.99417 37.2633 5.99417 37.2633 6.07795L38.1012 8.5915L34.9173 6.74823C34.8335 6.74823 34.8335 6.74823 34.7498 6.74823L33.9957 6.99959C33.9119 6.99959 33.8281 7.08337 33.8281 7.16716C33.8281 7.25094 33.8281 7.33473 33.9119 7.33473L37.0957 9.09421C36.7606 9.34556 36.4255 9.59692 36.2579 9.84827C36.0065 10.2672 35.839 10.7699 35.839 11.4402C35.839 11.524 35.839 11.6915 35.839 11.9429C35.839 12.278 35.839 12.4456 35.839 12.697C35.839 12.8645 35.839 13.0321 35.7552 13.1997C35.7552 13.2834 35.7552 13.3672 35.839 13.3672C35.839 13.3672 35.9228 13.451 36.0065 13.451H36.0903L36.6768 13.2834C36.7606 13.2834 36.8444 13.1997 36.8444 13.1159C36.8444 12.8645 36.9282 12.3618 36.9282 11.524C36.9282 10.9375 37.0957 10.4348 37.2633 10.1834C37.5147 9.93205 37.8498 9.6807 38.3525 9.51313L39.2741 12.1942C39.2741 12.278 39.3579 12.278 39.3579 12.278C39.4417 12.278 39.4417 12.278 39.5255 12.278L40.112 12.1105C40.1958 12.1105 40.2796 11.9429 40.2796 11.8591L39.3579 9.17799C39.8606 9.01042 40.2796 8.92664 40.6147 9.01042C40.9498 9.09421 41.3688 9.34556 41.7039 9.76448C42.2066 10.4348 42.6255 10.7699 42.7931 11.0213C42.8769 11.105 42.9607 11.105 43.0445 11.0213L43.631 10.7699C43.7147 10.7699 43.7985 10.6861 43.7985 10.6023C43.7985 10.5185 43.7985 10.4348 43.7147 10.4348C43.631 10.5185 43.4634 10.351 43.3796 10.2672Z" fill="white"/>
<path d="M49.0773 3.06165C48.9935 3.06165 48.9935 2.97787 48.9097 3.06165L48.2394 3.14544C48.1556 3.14544 48.0719 3.31301 48.0719 3.39679L48.4908 5.91034L45.307 6.49683L44.888 3.98329C44.888 3.8995 44.8042 3.8995 44.8042 3.81572C44.7205 3.81572 44.7205 3.73193 44.6367 3.81572L43.9664 3.8995C43.8826 3.8995 43.7988 4.06707 43.7988 4.15085L44.888 10.5185C44.888 10.6023 44.888 10.6023 44.9718 10.6861H45.0556L45.7259 10.6023C45.8097 10.6023 45.8935 10.4347 45.8935 10.3509L45.3907 7.50225L48.5746 6.91576L49.0773 9.76444C49.0773 9.84822 49.0773 9.84822 49.1611 9.93201C49.2448 9.93201 49.2448 10.0158 49.3286 9.93201L49.9989 9.84822C50.0827 9.84822 50.0827 9.76444 50.1665 9.76444C50.1665 9.68065 50.2503 9.68065 50.1665 9.59687L49.0773 3.22922C49.1611 3.14544 49.1611 3.06165 49.0773 3.06165Z" fill="white"/>
<path d="M56.1988 5.40748C55.6123 5.07234 54.942 4.90477 54.1042 4.90477C53.769 4.90477 53.5177 4.90477 53.2663 4.98855V2.89393C53.2663 2.81015 53.2663 2.81015 53.1825 2.72636C53.1825 2.72636 53.0988 2.64258 53.015 2.64258H52.3447C52.2609 2.64258 52.0933 2.72636 52.1771 2.89393L52.2609 9.34536C52.2609 9.42915 52.3447 9.59672 52.5123 9.59672C52.5961 9.59672 52.7636 9.59672 53.0988 9.59672C53.3501 9.59672 53.6015 9.59672 53.8528 9.59672C53.9366 9.59672 53.9366 9.59672 54.0204 9.59672C55.1096 9.59672 55.9474 9.26158 56.5339 8.75887C56.9529 8.33995 57.1204 7.83724 57.1204 7.25074C57.1204 6.32911 56.7853 5.74262 56.1988 5.40748ZM56.115 7.16696C56.115 7.66967 55.9474 8.00481 55.6123 8.17238C55.1934 8.42373 54.7745 8.5913 54.188 8.5913C53.9366 8.5913 53.6853 8.5913 53.4339 8.5913L53.3501 5.91019C53.6015 5.91019 53.8528 5.8264 54.1042 5.8264C54.6907 5.8264 55.1096 5.91019 55.5285 6.16154C55.8637 6.32911 56.0312 6.66425 56.115 7.16696Z" fill="white"/>
<path d="M58.4599 2.5584C58.4599 2.5584 58.3761 2.47461 58.2923 2.47461H57.6221C57.5383 2.47461 57.3707 2.5584 57.4545 2.72597L57.5383 9.17739C57.5383 9.26118 57.6221 9.42875 57.7896 9.42875H58.4599C58.5437 9.42875 58.5437 9.42875 58.6275 9.34496C58.6275 9.34496 58.7112 9.26118 58.7112 9.17739L58.6275 2.72597C58.5437 2.64218 58.5437 2.64218 58.4599 2.5584Z" fill="white"/>
<path d="M66.8392 3.48034L66.1689 3.39655C66.0851 3.39655 66.0013 3.39655 66.0013 3.48034L63.0688 6.83173C62.7337 7.16687 62.3986 7.58579 62.0634 8.0885C62.1472 7.58579 62.231 6.9993 62.3148 6.32902L62.7337 3.1452C62.7337 3.06141 62.7337 3.06141 62.7337 2.97763C62.7337 2.89384 62.6499 2.89384 62.5661 2.89384L61.9796 2.81006C61.8959 2.81006 61.7283 2.89384 61.7283 2.97763L60.8066 9.34527C60.8066 9.42906 60.8066 9.42906 60.8904 9.51284C60.8904 9.59663 60.9742 9.59663 61.058 9.59663L61.7283 9.68041C61.8121 9.68041 61.8958 9.68041 61.8958 9.59663C62.1472 9.34527 62.6499 8.75878 63.3202 8.00472C63.9905 7.25065 64.4932 6.66416 64.8283 6.32902C65.1635 5.9101 65.5824 5.49117 65.9175 4.98846C65.8337 5.49117 65.7499 6.07767 65.6662 6.66416L65.2472 9.84798C65.2472 9.93177 65.2472 9.93177 65.331 10.0156C65.331 10.0993 65.4148 10.0993 65.4986 10.0993L66.0851 10.1831C66.1689 10.1831 66.2527 10.0993 66.3364 10.0156L67.2581 3.64791C67.2581 3.56412 67.2581 3.56412 67.1743 3.48034C67.0067 3.48034 66.9229 3.48034 66.8392 3.48034Z" fill="white"/>
<path d="M64.4097 2.47499C64.4935 2.47499 64.661 2.47499 64.7448 2.47499C65.1638 2.47499 65.4989 2.39121 65.7502 2.22364C66.1692 1.97228 66.3367 1.55336 66.5043 1.05065C66.5043 0.966867 66.5043 0.966867 66.5043 0.883082C66.5043 0.799297 66.4205 0.799295 66.3367 0.799295L65.7502 0.715512C65.6665 0.715512 65.5827 0.799297 65.4989 0.883082C65.4151 1.13444 65.3313 1.38579 65.1638 1.46958C64.9962 1.63715 64.8286 1.63714 64.5773 1.63714C64.3259 1.63714 64.1583 1.55336 64.0746 1.38579C63.9908 1.21822 63.907 0.966866 63.907 0.715512C63.907 0.631727 63.8232 0.547943 63.7394 0.464158L63.1529 0.380371C63.0691 0.380371 63.0691 0.380373 62.9853 0.464158C62.9016 0.464158 62.9016 0.547943 62.9016 0.631728C62.8178 1.63715 63.3205 2.30742 64.4097 2.47499Z" fill="white"/>
<path d="M75.0502 5.65872L70.3583 4.23438C70.2745 4.23438 70.2745 4.23438 70.1907 4.23438C70.1069 4.23438 70.1069 4.31816 70.1069 4.40195L68.2637 10.602C68.2637 10.6858 68.2637 10.6858 68.2637 10.7696C68.2637 10.8534 68.3475 10.8534 68.4312 10.8534L69.0177 11.0209C69.1015 11.0209 69.2691 11.0209 69.2691 10.8534L70.861 5.40736L73.961 6.329L72.3691 11.775C72.3691 11.8588 72.3691 12.0264 72.5367 12.0264L73.1232 12.1939C73.1232 12.1939 73.1232 12.1939 73.207 12.1939H73.2908C73.3745 12.1939 73.3745 12.1101 73.3745 12.0264L75.2178 5.82628C75.2178 5.7425 75.2178 5.7425 75.2178 5.65872C75.134 5.65872 75.0502 5.65872 75.0502 5.65872Z" fill="white"/>
<path d="M80.6632 7.83726C79.8254 7.41833 78.9875 7.41834 78.1497 7.75348C77.3118 8.08861 76.6415 8.75889 76.1388 9.76431C75.7199 10.6859 75.6361 11.6076 75.8875 12.4454C76.1388 13.2833 76.7253 13.9536 77.5632 14.2887C77.8983 14.4563 78.3172 14.54 78.7362 14.54C78.82 14.54 78.9037 14.54 78.9875 14.54C79.3227 14.54 79.6578 14.4563 79.9929 14.3725C80.4119 14.2887 80.8308 14.0373 81.1659 13.6184C81.5011 13.2833 81.8362 12.7806 82.0876 12.2779C82.5065 11.3562 82.5903 10.4346 82.3389 9.59674C82.0876 8.84268 81.5849 8.25618 80.6632 7.83726ZM81.4173 11.1049C81.3335 11.44 81.2497 11.6914 81.1659 11.9427C80.8308 12.613 80.4119 13.1157 79.7416 13.3671C79.1551 13.6184 78.5686 13.6184 78.0659 13.3671C77.5632 13.1157 77.1443 12.6968 76.9767 12.1103C76.8091 11.5238 76.8929 10.8535 77.228 10.1832C77.5632 9.51295 77.9821 9.01024 78.5686 8.75889C78.82 8.59132 79.1551 8.50754 79.4065 8.50754C79.6578 8.50754 79.9929 8.59132 80.3281 8.75889C80.6632 8.92646 80.9146 9.09403 81.0821 9.42917C81.2497 9.68053 81.4173 10.0157 81.4173 10.267C81.4173 10.5184 81.4173 10.7697 81.4173 11.1049Z" fill="white"/>
<path d="M85.9411 12.6129C86.5276 12.4453 87.1979 12.5291 87.7844 12.948C88.2871 13.2831 88.6222 13.6183 88.7898 14.0372C88.7898 14.121 88.8736 14.121 88.9574 14.121C89.0412 14.121 89.0412 14.121 89.1249 14.121L89.6277 13.7859C89.7114 13.7021 89.7114 13.6183 89.7114 13.5345C89.5439 13.0318 89.1249 12.6129 88.4547 12.1939C87.6168 11.6075 86.6952 11.4399 85.7735 11.6912C84.8519 11.8588 84.0979 12.4453 83.5114 13.3669C82.9249 14.2048 82.7573 15.1264 82.9249 15.9643C83.0924 16.8021 83.5951 17.5562 84.3492 18.0589C84.9357 18.4778 85.606 18.7292 86.2763 18.8129C86.36 18.8129 86.4438 18.7292 86.4438 18.6454L86.6114 18.1427C86.6114 18.0589 86.6114 18.0589 86.6114 17.9751C86.6114 17.8913 86.5276 17.8913 86.4438 17.8913C85.8573 17.8075 85.3546 17.64 84.9357 17.3886C84.3492 16.9697 84.0141 16.5508 83.9303 15.8805C83.8465 15.2102 84.0141 14.6237 84.433 13.9534C84.7681 13.1994 85.2708 12.7804 85.9411 12.6129Z" fill="white"/>
<path d="M91.4732 21.9972C90.9705 21.8297 90.4678 21.5783 89.9651 21.1594C89.4624 20.7405 89.211 20.2377 89.1272 19.6512C89.1272 19.0648 89.2948 18.4783 89.7975 17.8918L93.2327 20.8242C93.3165 20.908 93.4003 20.908 93.4841 20.8242C93.5678 20.7404 93.6516 20.6567 93.8192 20.4891C93.9868 20.3215 94.0706 20.154 94.2381 19.9026C94.4057 19.735 94.4895 19.3999 94.5733 19.1485C94.657 18.8134 94.7408 18.562 94.7408 18.2269C94.7408 17.8918 94.6571 17.5566 94.4895 17.2215C94.3219 16.8863 94.0706 16.5512 93.7354 16.2999C93.0651 15.7134 92.2273 15.462 91.3894 15.6296C90.5516 15.7971 89.7137 16.2999 88.9597 17.1377C88.2894 17.8918 87.9543 18.7296 88.038 19.5675C88.038 20.4053 88.457 21.1594 89.211 21.8296C89.8813 22.4161 90.5516 22.7513 91.1381 22.9189C91.1381 22.9189 91.1381 22.9189 91.2219 22.9189C91.3057 22.9189 91.3894 22.8351 91.3894 22.7513L91.557 22.2486C91.557 22.1648 91.557 22.1648 91.557 22.081L91.4732 21.9972ZM90.4678 17.2215C90.8029 16.9701 91.2219 16.7188 91.7246 16.635C92.2273 16.5512 92.6462 16.635 93.1489 17.0539C93.4003 17.3053 93.5679 17.4728 93.6516 17.7242C93.7354 17.9756 93.7354 18.2269 93.7354 18.4783C93.6516 18.7296 93.6516 18.981 93.4841 19.1485C93.4003 19.3161 93.3165 19.3999 93.2327 19.5675L90.4678 17.2215Z" fill="white"/>
<path d="M100.772 23.7564C100.772 23.6726 100.772 23.6726 100.688 23.5889L98.0071 20.5726C97.9233 20.4888 97.7557 20.4888 97.6719 20.5726L95.7449 22.2483C95.0746 22.8348 94.4881 23.3375 94.0692 23.5051C93.6503 23.7564 93.3151 23.7564 92.98 23.6726C92.8124 23.5889 92.6448 23.5051 92.4773 23.4213C92.3935 23.3375 92.2259 23.3375 92.1421 23.4213L91.807 23.8402C91.7232 23.924 91.7232 24.0078 91.807 24.0916C92.0583 24.3429 92.3097 24.5105 92.6448 24.6781C93.1475 24.8456 93.734 24.7618 94.3205 24.5105C94.907 24.2591 95.5773 23.6726 96.4151 23.0024L97.6719 21.8294L99.18 23.5051L94.907 27.2754C94.907 27.2754 94.8232 27.3592 94.8232 27.443C94.8232 27.5267 94.8232 27.5267 94.907 27.6105L95.326 28.1132C95.4097 28.197 95.4097 28.197 95.4935 28.197C95.5773 28.197 95.5773 28.197 95.6611 28.1132L100.521 23.8402C100.688 23.8402 100.688 23.8402 100.772 23.7564Z" fill="white"/>
<path d="M103.119 33.0561C103.956 32.4696 104.543 31.7994 104.794 30.9615C105.046 30.1237 104.878 29.2858 104.375 28.448C103.873 27.6939 103.202 27.1912 102.281 27.0236C101.359 26.856 100.437 27.1074 99.5158 27.6939C98.6779 28.2804 98.0914 28.9507 97.8401 29.8723C97.5887 30.7102 97.7563 31.548 98.259 32.3021C98.5104 32.6372 98.7617 32.8886 99.0969 33.1399C99.432 33.3913 99.7671 33.5588 100.186 33.6426C100.437 33.7264 100.689 33.7264 100.94 33.7264C101.191 33.7264 101.359 33.7264 101.61 33.6426C102.113 33.5588 102.616 33.3913 103.119 33.0561ZM103.705 30.7939C103.537 31.0453 103.37 31.3804 103.202 31.548C103.035 31.7994 102.783 31.9669 102.532 32.1345C101.862 32.5534 101.275 32.721 100.605 32.6372C99.9347 32.5534 99.5158 32.3021 99.1806 31.7156C98.8455 31.2129 98.7617 30.7101 98.9293 30.0399C99.0969 29.4534 99.5158 28.8669 100.186 28.448C100.773 28.1128 101.359 27.8615 101.946 27.8615C102.029 27.8615 102.029 27.8615 102.113 27.8615C102.783 27.8615 103.202 28.1966 103.621 28.7831C103.789 29.1182 103.956 29.3696 103.956 29.7047C103.873 30.2074 103.873 30.5426 103.705 30.7939Z" fill="white"/>
<path d="M109.319 38.0001L108.983 37.246C108.983 37.1622 108.9 37.1622 108.9 37.1622L105.046 35.8217L107.475 34.6487C107.559 34.5649 107.643 34.4811 107.559 34.3973L107.308 33.8108C107.308 33.727 107.224 33.7271 107.224 33.7271C107.14 33.7271 107.14 33.7271 107.056 33.7271L101.275 36.4919C101.191 36.4919 101.191 36.5757 101.191 36.5757C101.191 36.6595 101.191 36.6595 101.191 36.7433L101.443 37.3298C101.527 37.4136 101.61 37.4974 101.694 37.4136L104.208 36.2406C104.459 36.8271 104.543 37.3298 104.543 37.7487C104.459 38.1676 104.208 38.6704 103.789 39.0893C103.37 39.592 103.118 39.9271 102.867 40.1785C102.867 40.2623 102.783 40.3461 102.867 40.3461L103.118 40.9325C103.118 41.0163 103.202 41.0163 103.286 41.0163C103.37 41.0163 103.454 41.0163 103.454 40.9325C103.621 40.6812 103.956 40.346 104.375 39.7596C104.878 39.1731 105.213 38.5866 105.297 38.0839C105.381 37.6649 105.381 37.246 105.297 36.7433L108.9 38.0839C108.983 38.0839 109.067 38.0839 109.151 38.0001C109.319 38.1676 109.319 38.0839 109.319 38.0001Z" fill="white"/>
<path d="M70.4422 71.0951V75.3682H66.6719V71.1789C66.6719 70.6762 66.8395 70.1735 67.2584 69.8384C67.5935 69.5032 68.0962 69.2519 68.5989 69.2519C69.5206 69.1681 70.3584 70.0059 70.4422 71.0951Z" fill="white"/>
</svg>
