<svg width="84" height="88" viewBox="0 0 84 88" fill="none" xmlns="http://www.w3.org/2000/svg">
<path d="M41.4013 28.2692C45.3516 28.2692 48.6229 24.9979 48.6229 21.0476C48.6229 17.0973 45.4133 13.826 41.463 13.826C41.4013 13.826 41.2779 13.826 41.2161 13.826C37.3276 13.9494 34.1797 17.159 34.1797 21.0476C34.1797 24.9979 37.3893 28.2692 41.4013 28.2692Z" fill="#ECB742"/>
<path d="M31.6491 30.1826H14.9221C13.6259 32.7133 12.7 35.4908 12.1445 38.3918H24.4892L31.6491 30.1826Z" fill="#ECB742"/>
<path d="M71.3365 40.5521H52.4492L59.0536 48.1441H71.1513C71.3365 46.7244 71.46 45.2431 71.46 43.7617C71.5217 42.7124 71.46 41.6631 71.3365 40.5521Z" fill="#ECB742"/>
<path d="M48.2524 34.6267C46.5859 37.4043 44.9194 39.9966 42.4505 42.0335C42.3887 42.0952 42.3887 42.0952 42.327 42.1569C41.7098 42.6507 41.0308 43.1445 40.2901 43.5766C36.525 45.7986 32.7599 45.8603 28.8714 45.9221C25.1062 45.9838 21.2794 46.0455 17.5143 48.2058C16.3416 48.8848 15.2923 49.6872 14.3047 50.6747C15.7243 50.4278 17.2674 50.7365 18.4401 51.6623C18.7488 51.3537 19.0574 51.1068 19.4277 50.9216C20.6622 50.181 22.1435 49.9341 23.6249 50.3044C24.8594 50.613 25.9704 51.3537 26.711 52.3413C30.5996 49.8723 35.2288 48.5144 40.1667 48.5144C40.8456 48.5144 41.4629 48.5762 42.1418 48.5762C42.1418 48.5144 42.2036 48.4527 42.2653 48.391L50.2276 39.256C50.351 39.0708 50.5979 39.0091 50.7831 39.0091H56.4616C56.4616 35.8612 58.9923 33.2688 62.1402 33.2688C62.5722 33.2688 63.0043 33.3305 63.4363 33.3922C64.2387 31.4171 66.0287 30.1209 68.1273 29.874C66.9546 27.5903 65.4732 25.43 63.745 23.5165C63.6832 23.5783 63.6215 23.5783 63.4981 23.5783C60.7822 23.9486 58.4368 24.751 56.2147 25.9855C52.3262 28.3309 50.1659 31.5406 48.2524 34.6267Z" fill="#D2E8E5"/>
<path d="M42.019 63.5749V50.181C41.4018 50.1192 40.7846 50.1192 40.1673 50.1192C37.6367 50.1192 35.1677 50.4896 32.8223 51.2302C34.5505 51.4154 35.9702 52.8968 35.9702 54.6867V57.7729C35.9702 59.4394 34.7974 60.7973 33.2543 61.1677V62.7108C33.9333 62.649 34.6122 62.5873 35.3529 62.5873C37.575 62.5873 39.8587 62.9577 42.019 63.5749Z" fill="#D2E8E5"/>
<path d="M31.6486 61.1677C30.1055 60.7973 28.9327 59.4394 28.9327 57.7729V54.6867C28.9327 53.8226 29.2414 53.0202 29.7969 52.403C25.0442 54.6867 21.2174 58.5136 18.9336 63.4514C19.9212 64.5624 20.9705 65.6117 22.0815 66.5993C24.9207 64.6859 28.1303 63.3897 31.5868 62.8959V61.1677H31.6486Z" fill="#D2E8E5"/>
<path d="M59.4855 51.6006C59.5473 51.6006 59.609 51.6006 59.6707 51.6006C62.2014 51.6006 64.1765 53.6375 64.1765 56.1681V60.4887C64.1765 61.6615 63.7444 62.7725 62.942 63.5749H63.9913H64.0531C67.4478 59.6863 69.7933 54.9954 70.8426 49.7489H59.4238V51.6006H59.4855Z" fill="#9FD0D8"/>
<path d="M16.7117 46.8479C19.1806 45.4283 21.6495 44.811 24.0568 44.5641V39.9349H11.8973C11.7121 41.1694 11.6504 42.4656 11.6504 43.7617C11.6504 46.0455 11.8973 48.2675 12.3911 50.4278C13.749 48.9465 15.1686 47.7737 16.7117 46.8479Z" fill="#9FD0D8"/>
<path d="M33.9318 28.8865L42.4496 38.7004C42.573 38.8239 42.6347 39.0091 42.6347 39.1942V39.7497C44.3013 38.0215 45.5357 35.9846 46.8936 33.8243C48.8688 30.553 51.2143 27.1582 55.4114 24.751C57.5718 23.5165 59.8555 22.7141 62.3862 22.2821C58.2507 18.2083 52.9425 15.3691 47.0171 14.2581C48.9305 15.8629 50.165 18.2701 50.165 20.9859C50.165 25.862 46.2147 29.8123 41.4003 29.8123C36.5241 29.8123 32.6356 25.862 32.6356 20.9859C32.6356 18.3318 33.8083 15.9863 35.66 14.3198C27.2039 16.048 20.0441 21.3562 15.7852 28.5778H33.3763C33.6232 28.6396 33.8083 28.7013 33.9318 28.8865Z" fill="#7DBCE0"/>
<path d="M60.4727 67.0931C61.2133 66.4759 61.954 65.7969 62.633 65.118H60.4727V67.0931Z" fill="#629D50"/>
<path d="M53.5599 71.2903C55.4733 70.4261 57.2633 69.4386 58.9298 68.2041V65.0562H45.9062C48.869 66.5993 51.5231 68.6979 53.5599 71.2903Z" fill="#629D50"/>
<path d="M25.3532 53.2054C24.7977 52.5264 24.057 52.0327 23.1929 51.7858C22.1436 51.5389 21.0943 51.724 20.2302 52.2178C19.7981 52.4647 19.4278 52.7733 19.1192 53.2054C18.9957 53.3906 18.7488 53.514 18.5637 53.514C18.3168 53.514 18.1316 53.4523 17.9464 53.2671C16.6503 51.9709 14.6751 51.724 13.132 52.7116C13.0703 52.7116 13.0703 52.7733 13.0703 52.7733C14.1196 56.1681 15.7861 59.316 17.9464 62.0318C19.6747 58.5136 22.2671 55.4892 25.3532 53.2054Z" fill="#629D50"/>
<path d="M35.2903 64.1921C30.9697 64.1921 26.896 65.4266 23.4395 67.6486C28.5008 71.5372 34.7965 73.8209 41.5861 73.8209C45.2277 73.8209 48.746 73.142 52.0173 71.9075C48.067 67.0931 41.833 64.1921 35.2903 64.1921Z" fill="#629D50"/>
<path d="M34.3639 57.7729V54.6867C34.3639 53.6374 33.4998 52.7733 32.4505 52.7733C31.4012 52.7733 30.5371 53.6374 30.5371 54.6867V57.7729C30.5371 58.5753 31.0309 59.1925 31.6481 59.5011V57.0939C31.6481 56.6619 32.0185 56.2915 32.4505 56.2915C32.8826 56.2915 33.2529 56.6619 33.2529 57.0939V59.5011C33.8702 59.1925 34.3639 58.5136 34.3639 57.7729Z" fill="#BCBC48"/>
<path d="M64.6708 34.6267C64.6091 34.8736 64.4856 35.0588 64.3005 35.1205C64.1153 35.2439 63.8684 35.2439 63.6832 35.1822C63.1894 34.997 62.6957 34.8736 62.2019 34.8736C59.9181 34.8736 58.0664 36.7253 58.0664 39.0091H71.2134C70.7814 36.355 70.0407 33.8243 68.9297 31.4788C68.868 31.4788 68.8062 31.4788 68.7445 31.4788C66.7694 31.4788 65.1646 32.775 64.6708 34.6267Z" fill="#BCBC48"/>
<path d="M60.4741 63.328C61.7086 62.9576 62.6344 61.8466 62.6344 60.4887V56.1681C62.6344 54.5016 61.2765 53.2054 59.6717 53.2054C58.0669 53.2054 56.709 54.5633 56.709 56.1681V60.4887C56.709 61.8466 57.6348 63.0194 58.8693 63.328V59.5011C58.8693 59.0691 59.2396 58.6987 59.6717 58.6987C60.1038 58.6987 60.4741 59.0691 60.4741 59.5011V63.328Z" fill="#BCBC48"/>
<path d="M57.9432 51.9709V49.2551L50.7216 40.9842L43.5 49.2551V63.5132H56.3384C55.5977 62.7108 55.104 61.5997 55.104 60.427V56.1064C55.1657 54.2547 56.3384 52.6499 57.9432 51.9709ZM53.2523 56.5384C53.1288 56.6619 52.8819 56.7853 52.6967 56.7853H48.3761C47.9441 56.7853 47.5737 56.415 47.5737 55.9829V52.0944C47.5737 51.292 47.8823 50.5513 48.4379 49.9958C48.9934 49.4403 49.734 49.1316 50.5364 49.1316C52.1412 49.1316 53.4992 50.4278 53.4992 52.0944V55.9829C53.4374 56.1681 53.3757 56.3533 53.2523 56.5384Z" fill="#EFEFEF"/>
<path d="M33.3775 30.6147L25.6621 39.5028V44.4407C26.7731 44.379 27.8224 44.379 28.8717 44.3172C32.5751 44.2555 36.0933 44.1938 39.5498 42.2186C40.1053 41.91 40.6608 41.5397 41.1546 41.1076V39.4411L33.3775 30.6147ZM34.3651 40.9842H32.9454C32.6985 40.9842 32.5134 40.799 32.5134 40.5521V38.8856C32.5134 38.2684 33.0072 37.7129 33.6861 37.7129C34.3033 37.7129 34.8589 38.2066 34.8589 38.8856V40.5521C34.8589 40.799 34.612 40.9842 34.3651 40.9842Z" fill="#EFEFEF"/>
<path d="M4.98415 57.6494C5.47793 58.0198 6.03344 58.0815 6.77412 57.8346C7.39135 57.6494 7.76169 57.2174 7.94686 56.6001C8.13203 56.0446 8.0703 55.4891 7.88513 54.8719L7.39135 53.3905C7.26791 53.0819 7.14446 52.8968 6.95929 52.7733C6.77412 52.6499 6.4655 52.6499 6.15689 52.7733L0.663524 54.5633C0.354908 54.6867 0.169739 54.8102 0.0462924 54.9953C-0.0154308 55.1805 -0.0154308 55.4274 0.0462924 55.736L0.601802 57.4025C0.848695 58.0815 1.21903 58.637 1.71282 59.0073C2.08316 59.2542 2.4535 59.3777 2.88556 59.3777C3.13245 59.3777 3.37934 59.316 3.68796 59.2542C4.49036 59.0691 4.92242 58.4518 4.98415 57.6494ZM3.13245 57.7112C2.82384 57.8346 2.57694 57.7729 2.39177 57.6494C2.2066 57.526 2.02144 57.2174 1.83627 56.7853L1.58937 55.9212L3.44107 55.304L3.74968 56.1681C3.93485 57.0322 3.74968 57.526 3.13245 57.7112ZM4.92242 55.6743L4.67553 54.9953L6.21861 54.5016L6.4655 55.2422C6.52723 55.4891 6.52723 55.736 6.4655 55.9212C6.40378 56.1064 6.21861 56.2298 5.97172 56.3532C5.6631 56.4767 5.16932 56.4767 4.92242 55.6743Z" fill="white"/>
<path d="M12.3903 64.6242C12.452 64.439 12.452 64.1921 12.3285 63.9452L10.9089 61.538C10.6003 60.9825 10.2917 60.7356 9.92134 60.6122C9.551 60.5505 9.11894 60.6122 8.62516 60.9208L5.04521 63.0811C4.67487 63.328 4.55142 63.2045 4.55142 63.1428C4.42798 62.9577 4.30453 62.8342 4.18108 62.649C4.05764 62.5256 3.81074 62.3404 3.31696 62.5873C3.00834 62.7725 2.76145 63.1428 3.25524 63.9452C3.81075 64.8711 4.61315 65.118 5.60072 64.5625L9.42755 62.2787C9.61272 62.1553 9.73617 62.217 9.79789 62.3404L10.7855 63.9452L6.15623 66.7228C5.84761 66.9079 5.66244 67.0931 5.60072 67.34C5.539 67.5252 5.60072 67.7103 5.72416 67.8955C5.84761 68.1424 6.03278 68.2658 6.27967 68.2658H6.3414C6.52657 68.2658 6.71173 68.2041 6.95863 68.0807L11.9582 65.0562C12.1434 65.0562 12.2668 64.8711 12.3903 64.6242Z" fill="white"/>
<path d="M16.0943 68.451C15.724 68.0806 15.2302 68.0189 14.6747 68.2658L8.99614 70.7347C8.87269 70.7965 8.74925 70.8582 8.6258 70.9816C8.44063 71.1668 8.37891 71.2902 8.37891 71.5371C8.37891 71.7223 8.44063 71.9075 8.6258 72.0926C8.81097 72.2778 9.11958 72.463 9.61337 72.2161L10.6627 71.7223L12.5761 73.7592L12.0823 74.8085C11.8354 75.364 11.9588 75.6726 12.144 75.8578C12.2675 76.0429 12.4526 76.1047 12.6378 76.1047H12.6995C12.8847 76.1047 13.0081 76.0429 13.1933 75.9195C13.255 75.8578 13.3785 75.7343 13.4402 75.5491L16.2177 69.9323C16.5881 69.1299 16.3412 68.6979 16.0943 68.451ZM14.5512 69.8706L13.255 72.3395L12.0206 71.0434L14.5512 69.8706Z" fill="white"/>
<path d="M23.8097 74.7468L21.4025 73.2037C20.4766 72.5864 19.6742 72.7716 19.057 73.6975L17.1436 76.6602C16.8349 77.0922 16.6498 77.2774 16.5263 77.3391C16.4029 77.4009 16.2794 77.4626 16.2177 77.4009C15.7856 77.2157 15.4153 77.2774 15.1684 77.7095L14.4895 78.7588C14.366 78.9439 14.3043 79.1291 14.366 79.3143C14.4277 79.4995 14.5512 79.6846 14.7363 79.8081C14.9215 79.9315 15.1067 79.9932 15.2919 79.9315C15.477 79.8698 15.6622 79.7463 15.7856 79.5612L16.156 79.0674H16.2177C16.3412 79.1291 16.4029 79.1291 16.4646 79.1908L19.6742 81.2894L19.3039 81.8449C19.1804 82.0301 19.1187 82.2153 19.1804 82.4004C19.2421 82.5856 19.3039 82.7708 19.5508 82.8942C19.7359 83.0177 19.8594 83.0794 20.0445 83.0794C20.2914 83.0794 20.4766 82.9559 20.6618 82.7091L21.4025 81.5363C21.5876 81.2277 21.5259 80.9808 21.4642 80.7956C21.4025 80.6722 21.279 80.6105 21.0938 80.487L23.9948 76.043C24.4269 75.3023 24.0566 74.8702 23.8097 74.7468ZM17.6991 78.265C17.946 78.0798 18.1928 77.7712 18.4397 77.4009L20.3532 74.4999C20.4766 74.3147 20.5383 74.3147 20.7235 74.4381L22.3283 75.4874L19.6742 79.5612L17.6991 78.265Z" fill="white"/>
<path d="M32.08 78.1415C31.7714 78.0181 31.4628 78.0798 31.0924 78.3267L26.5867 81.4746L27.8828 77.7095C28.1915 76.9071 27.7594 76.5985 27.4508 76.475C27.2039 76.4133 26.957 76.4133 26.7718 76.5367C26.5867 76.6602 26.4632 76.8454 26.3398 77.154L24.3646 82.8325C24.1177 83.5732 24.4881 83.8201 24.735 83.9435C25.0436 84.067 25.4139 84.0053 25.7225 83.7584L30.2283 80.6105L28.9321 84.3756C28.6235 85.178 29.0556 85.4866 29.3642 85.5483C29.4259 85.5483 29.5494 85.6101 29.6728 85.6101C29.9197 85.6101 30.29 85.4866 30.4752 84.8694L32.4504 79.2526C32.759 78.5119 32.3886 78.265 32.08 78.1415Z" fill="white"/>
<path d="M41.7706 79.8081C41.5854 79.6229 41.2768 79.4995 41.0299 79.4377C40.4744 79.376 40.0423 79.6846 39.8571 80.2401L38.3758 84.4373L37.5734 80.055C37.4499 79.4995 37.0796 79.1291 36.5241 79.1291C36.2155 79.1291 35.9686 79.1908 35.7217 79.376C35.4748 79.5612 35.3514 79.8081 35.2896 80.055L33.9934 85.7335C33.9317 85.9187 33.9317 85.9804 33.9317 85.9804C33.87 86.7211 34.3021 86.8445 34.6107 86.8445C34.9193 86.8445 35.1045 86.7828 35.2896 86.5976C35.4131 86.4742 35.4748 86.289 35.5365 85.9804L36.4624 81.7215L37.3265 86.0421C37.4499 86.7828 37.882 86.968 38.1906 87.0297C38.4992 87.0914 38.9313 86.9062 39.2399 86.2273L40.7213 82.0918L40.9682 86.4125C40.9682 86.7211 41.0299 86.9062 41.0916 87.0297C41.2151 87.2149 41.4002 87.3383 41.7088 87.4H41.7706C41.9557 87.4 42.1409 87.3383 42.2644 87.2148C42.4495 87.0297 42.5112 86.8445 42.5112 86.5976L42.0792 80.5488C42.0792 80.2401 41.9557 79.9932 41.7706 79.8081Z" fill="white"/>
<path d="M51.3389 79.1291C51.2154 78.3267 50.7216 78.265 50.413 78.3267C50.1044 78.3884 49.8575 78.6353 49.6723 79.0057L47.3269 83.9435L46.6479 80.055C46.4627 79.1908 45.9689 79.1291 45.6603 79.1908C45.3517 79.2526 44.9197 79.4377 45.0431 80.3019L46.0924 86.2273C46.1541 86.5359 46.2776 86.7828 46.4627 86.9062C46.5862 86.968 46.7096 87.0297 46.8331 87.0297C46.8948 87.0297 46.9565 87.0297 47.0182 87.0297C47.3269 86.968 47.6355 86.7211 47.7589 86.4125L50.1044 81.4746L50.7834 85.3632C50.9068 86.2273 51.4623 86.2273 51.7709 86.1656C52.0178 86.1038 52.1413 86.0421 52.2647 85.8569C52.3882 85.6718 52.4499 85.3632 52.3882 85.0545L51.3389 79.1291Z" fill="white"/>
<path d="M57.8814 76.3516C57.2642 76.1047 56.5235 76.1664 55.7828 76.475L54.2398 77.154C53.6842 77.4009 53.4991 77.8946 53.746 78.4501L56.0297 83.8201C56.1532 84.1287 56.2766 84.3138 56.4618 84.4373C56.5852 84.499 56.647 84.499 56.7704 84.499C56.8939 84.499 57.0173 84.499 57.079 84.4373C57.3259 84.3138 57.4494 84.1904 57.5111 83.9435C57.5728 83.7583 57.5111 83.5114 57.3876 83.2028L56.7087 81.6598L57.758 81.166C58.1283 80.9808 58.4369 80.7956 58.6838 80.5487C59.0542 80.1784 59.3011 79.7463 59.3628 79.1908C59.4245 78.697 59.3628 78.2033 59.1159 77.7095C58.9924 77.0305 58.4987 76.5367 57.8814 76.3516ZM57.758 79.3143C57.6345 79.5612 57.3876 79.8081 57.079 79.9315L56.2766 80.3018L55.4125 78.265L56.2149 77.8946C56.5852 77.7095 56.8939 77.7095 57.1407 77.7712C57.3876 77.8329 57.5728 78.0798 57.6963 78.3884C57.8814 78.7588 57.8814 79.0674 57.758 79.3143Z" fill="white"/>
<path d="M65.2881 71.9075C64.3006 71.6606 63.313 71.8458 62.4489 72.5247C61.5847 73.2037 61.091 74.0061 61.0292 75.0554C60.9675 75.9812 61.2761 76.9688 61.8934 77.8329C62.5106 78.6971 63.313 79.3143 64.3006 79.4995C64.5475 79.5612 64.8561 79.6229 65.103 79.6229C65.7819 79.6229 66.4609 79.376 67.1398 78.944C68.004 78.265 68.4977 77.4626 68.5595 76.4133C68.6212 75.4875 68.3126 74.4999 67.6953 73.6358C67.0164 72.7099 66.214 72.1544 65.2881 71.9075ZM63.3747 73.7592C63.8068 73.4506 64.3006 73.3271 64.7944 73.4506C65.2881 73.574 65.8436 73.9444 66.3374 74.6233C66.7078 75.1788 66.9547 75.7344 66.9547 76.2281C66.9547 76.8454 66.7695 77.3392 66.214 77.7095C65.7202 78.0798 65.1647 78.1415 64.6092 77.9564C64.1154 77.7712 63.6833 77.4009 63.2513 76.8454C62.7575 76.1664 62.5723 75.5492 62.5723 75.0554C62.6958 74.4999 62.9427 74.0678 63.3747 73.7592Z" fill="white"/>
<path d="M72.2012 68.2658C72.2629 67.6486 72.016 67.1548 71.4605 66.661C70.9667 66.229 70.4112 66.1055 69.7939 66.2907C69.2384 66.4141 68.8064 66.7228 68.3743 67.2165L67.3867 68.3893C67.2016 68.6362 67.0781 68.8831 67.0781 69.0682C67.0781 69.3151 67.2016 69.562 67.4485 69.7472L71.8308 73.574C72.0777 73.7592 72.2629 73.8826 72.448 73.8826H72.5098C72.6949 73.8826 72.9418 73.6975 73.127 73.4506L74.2997 72.0927C74.7935 71.5372 75.0404 70.9199 75.0404 70.3027C75.0404 69.6237 74.7935 69.0065 74.238 68.5127C73.6825 67.9572 72.9418 67.8338 72.2012 68.2658ZM73.1887 71.352L72.6332 72.0309L71.1519 70.7348L71.7691 70.0558C72.3246 69.4386 72.8184 69.3768 73.3122 69.8089C73.5591 70.0558 73.8677 70.4879 73.1887 71.352ZM70.5963 69.2534L70.1026 69.8089L68.9298 68.7596L69.4236 68.1424C69.6088 67.9572 69.7939 67.8338 70.0408 67.772C70.226 67.7103 70.4112 67.8338 70.6581 67.9572C70.8432 68.2658 71.1519 68.6362 70.5963 69.2534Z" fill="white"/>
<path d="M80.472 61.538C80.2869 61.4146 79.9782 61.4146 79.6696 61.4763L75.9045 62.5256L75.1638 59.5012C75.0404 59.0691 74.9169 58.8222 74.7318 58.6988C74.5466 58.5753 74.3614 58.5753 74.1763 58.637C73.9911 58.6988 73.8059 58.8222 73.7442 59.0074C73.6208 59.1925 73.6208 59.5012 73.7442 59.8715L74.6083 63.2046L73.0652 62.3404C72.7566 62.1553 72.5097 62.0935 72.2628 62.1553C72.0777 62.217 71.8925 62.3404 71.8308 62.5256C71.7073 62.7108 71.7073 62.8959 71.7691 63.0811C71.8308 63.328 72.0159 63.5132 72.3246 63.6983L77.5093 66.5993C77.7562 66.7228 77.9414 66.7845 78.1265 66.7845C78.4969 66.7845 78.682 66.5376 78.7438 66.3524C78.8672 66.1055 79.0524 65.55 78.25 65.1797L76.3366 64.1304L76.5217 63.9452L80.04 63.0811C80.472 62.9577 80.7189 62.8342 80.8424 62.5873C80.9658 62.4022 80.9658 62.217 80.9041 62.0318C80.7806 61.7849 80.6572 61.6615 80.472 61.538Z" fill="white"/>
<path d="M83.8665 53.1436C83.8048 52.9585 83.6196 52.835 83.4345 52.7733C83.311 52.7116 83.1876 52.7116 83.0024 52.7116L76.7684 53.0819C76.0277 53.1436 75.7191 53.5757 75.5956 53.8843C75.4722 54.3781 75.6573 54.8102 76.1511 55.2422L81.1507 59.0073C81.2742 59.0691 81.3976 59.1308 81.521 59.1925C81.5828 59.1925 81.7062 59.2542 81.7679 59.2542C81.8914 59.2542 82.0148 59.1925 82.1383 59.1308C82.3234 59.0073 82.4469 58.8839 82.5086 58.637C82.5703 58.3901 82.5703 58.0198 82.1383 57.7112L81.1507 57.0322L81.9531 54.3781L83.1259 54.3164C83.7431 54.3164 83.9283 54.0078 83.99 53.7609C83.9283 53.5757 83.9283 53.3288 83.8665 53.1436ZM80.2866 54.4398L79.7928 56.1681L77.5708 54.5633L80.2866 54.4398Z" fill="white"/>
<path d="M2.70135 41.5397C2.70135 42.2187 2.14584 42.7742 1.46689 42.7742C0.78793 42.7742 0.232422 42.2187 0.232422 41.5397C0.232422 40.8607 0.78793 40.3052 1.46689 40.3052C2.14584 40.3052 2.70135 40.8607 2.70135 41.5397Z" fill="white"/>
<path d="M81.2736 41.5397C81.2736 42.2187 80.7181 42.7742 80.0392 42.7742C79.3602 42.7742 78.8047 42.2187 78.8047 41.5397C78.8047 40.8607 79.3602 40.3052 80.0392 40.3052C80.7798 40.3052 81.2736 40.8607 81.2736 41.5397Z" fill="white"/>
<path d="M8.62596 26.294C8.44079 26.294 8.25562 26.294 8.07045 26.294C7.88528 26.294 7.63838 26.294 7.32977 26.2323L6.71253 26.1706C6.0953 26.1706 5.60152 26.2323 5.16945 26.3558C4.79912 26.4792 4.4905 26.7878 4.24361 27.1582L2.57708 23.7017C2.57708 23.64 2.45364 23.64 2.45364 23.64C2.39191 23.64 2.33019 23.7017 2.33019 23.7634L2.0833 24.2572C2.0833 24.3189 2.0833 24.3189 2.0833 24.3806L3.81155 27.8989V28.0223L1.15745 26.8496C1.09572 26.7878 0.972281 26.8496 0.972281 26.9113L0.787109 27.3433C0.787109 27.4051 0.787109 27.4051 0.787109 27.4668C0.787109 27.5285 0.848832 27.5285 0.848832 27.5285L6.89771 30.2443H6.95943C7.02115 30.2443 7.08288 30.1826 7.08288 30.1209L7.26804 29.6888C7.26804 29.6271 7.26804 29.6271 7.26804 29.5654C7.26804 29.5037 7.20632 29.5037 7.20632 29.5037L4.42878 28.2692L4.4905 28.1457C4.73739 27.5902 4.98429 27.2816 5.35463 27.0965C5.66324 26.9113 6.15703 26.8496 6.65081 26.9113C7.63838 26.973 8.25561 26.973 8.44078 26.973C8.50251 26.973 8.56423 26.9113 8.56423 26.9113L8.7494 26.4792C8.7494 26.4175 8.7494 26.3558 8.7494 26.3558C8.7494 26.2941 8.68768 26.2323 8.62596 26.294Z" fill="white"/>
<path d="M10.4155 21.2945C10.1686 20.9859 9.92175 20.739 9.55141 20.4921C8.93418 20.06 8.25522 19.9366 7.63799 20.06C7.02076 20.1835 6.46525 20.4921 6.09491 21.1093C5.72457 21.6648 5.66285 22.2821 5.78629 22.961C5.90974 23.64 6.34181 24.1337 7.08248 24.6275C7.57627 24.9362 8.13178 25.1213 8.62556 25.1213C8.74901 25.1213 8.87245 25.1213 9.05762 25.0596C9.67486 24.9361 10.2304 24.6275 10.539 24.0103C10.6624 23.7634 10.7859 23.5165 10.8476 23.2079C10.9093 22.8993 10.9093 22.5907 10.8476 22.2821C10.7242 21.9117 10.6007 21.6031 10.4155 21.2945ZM9.86003 23.5782C9.61313 23.9486 9.30452 24.1955 8.81073 24.2572C8.31694 24.3189 7.88489 24.1955 7.3911 23.8869C6.95904 23.5782 6.65042 23.2079 6.46525 22.7758C6.28008 22.3438 6.3418 21.9117 6.65042 21.4797C6.77387 21.2328 6.95904 21.1093 7.20593 20.9859C7.3911 20.8624 7.63799 20.8007 7.82316 20.8007C8.07005 20.8007 8.25522 20.8624 8.50211 20.9241C8.68728 20.9859 8.93418 21.1093 9.11935 21.171C9.61313 21.4797 9.92175 21.85 10.0452 22.3438C10.1686 22.7758 10.1069 23.2079 9.86003 23.5782Z" fill="white"/>
<path d="M10.1697 16.8504L11.0338 15.8011C11.0338 15.7394 11.0955 15.7394 11.0955 15.6777C11.0955 15.616 11.0955 15.616 11.0338 15.5542L10.7252 15.3073C10.6635 15.2456 10.54 15.2456 10.4783 15.3073L8.19453 18.0232C8.19453 18.0849 8.13281 18.0849 8.13281 18.1466C8.13281 18.2083 8.13281 18.2083 8.19453 18.27L8.50315 18.5169C8.56487 18.5787 8.68832 18.5787 8.75004 18.5169L9.61417 17.4677L12.8238 20.1835C12.8238 20.1835 12.8855 20.2452 12.9472 20.2452C13.0089 20.2452 13.0089 20.2452 13.0707 20.1835L13.3793 19.8131C13.3793 19.7514 13.441 19.7514 13.441 19.6897C13.441 19.628 13.441 19.628 13.3793 19.5662L10.1697 16.8504Z" fill="white"/>
<path d="M13.5646 13.3322L14.5522 12.4063C14.6139 12.3446 14.6139 12.2212 14.5522 12.1595L14.3053 11.9126C14.2436 11.8508 14.1201 11.8508 14.0584 11.9126L11.466 14.3815C11.466 14.3815 11.4043 14.4432 11.4043 14.5049C11.4043 14.5667 11.4043 14.5667 11.466 14.6284L11.7129 14.937C11.7129 14.937 11.7746 14.9987 11.8364 14.9987C11.8981 14.9987 11.8981 14.9987 11.9598 14.937L12.9474 14.0112L15.8484 17.0356C15.8484 17.0356 15.9101 17.0973 15.9718 17.0973C16.0335 17.0973 16.0335 17.0973 16.0953 17.0356L16.4656 16.727C16.5273 16.6652 16.5273 16.5418 16.4656 16.4801L13.5646 13.3322Z" fill="white"/>
<path d="M20.5386 12.2829C20.4768 12.2829 20.4768 12.2212 20.4151 12.2829C20.3534 12.2829 20.3534 12.3446 20.2917 12.3446C20.1065 12.715 19.7979 13.0236 19.4276 13.2705C19.0572 13.5791 18.6252 13.6408 18.1931 13.5791C17.8228 13.5174 17.3907 13.2705 17.0204 12.7767L19.6744 10.8016C19.7362 10.7398 19.7362 10.6781 19.7362 10.6164C19.7362 10.5547 19.6744 10.4312 19.551 10.3695C19.4276 10.2461 19.3658 10.1226 19.2424 9.99916C19.1189 9.87571 18.9338 9.75226 18.7486 9.62882C18.5634 9.50537 18.3165 9.44365 18.1314 9.38192C17.8845 9.3202 17.6376 9.3202 17.3907 9.38192C17.1438 9.44365 16.8352 9.5671 16.5883 9.75227C16.0328 10.1226 15.7859 10.6781 15.7242 11.3571C15.6624 12.036 15.9093 12.6533 16.4031 13.3322C16.8352 13.9494 17.3907 14.3198 18.0079 14.4432C18.1314 14.4432 18.3165 14.5049 18.44 14.5049C18.9338 14.5049 19.3658 14.3198 19.8596 14.0112C20.3534 13.6408 20.7237 13.2088 20.9089 12.8384C20.9706 12.7767 20.9089 12.715 20.8472 12.6533L20.5386 12.2829ZM18.8103 10.6781L16.7117 12.2829C16.5883 11.9743 16.5266 11.6657 16.5266 11.2953C16.5266 10.925 16.7117 10.6164 17.0204 10.3695C17.2055 10.2461 17.3907 10.1226 17.6376 10.1226C17.6993 10.1226 17.761 10.1226 17.8227 10.1226C17.9462 10.1226 18.0696 10.1226 18.1931 10.1843C18.3783 10.246 18.5017 10.3695 18.6252 10.4312C18.6869 10.4929 18.7486 10.5547 18.8103 10.6781Z" fill="white"/>
<path d="M25.6615 9.62883C25.6615 9.56711 25.5998 9.5671 25.538 9.5671C25.4763 9.5671 25.4763 9.5671 25.4146 9.5671L25.1677 9.69055L23.1926 5.98716C23.1308 5.92544 23.0691 5.86372 23.0074 5.92544L20.5385 7.28335C20.4767 7.34507 20.415 7.40679 20.4767 7.46852L21.094 8.57954C21.4643 9.25849 21.7112 9.93745 21.8346 10.5547C21.8964 10.8633 21.8964 11.1719 21.8964 11.4805L21.6495 11.604C21.5878 11.604 21.5878 11.6657 21.5878 11.7274C21.5878 11.7891 21.5878 11.7891 21.5878 11.8509L22.5136 13.4557C22.5136 13.5174 22.5753 13.5174 22.637 13.5174H22.6988L23.0691 13.3322C23.1308 13.2705 23.1926 13.2088 23.1308 13.1471L22.5136 11.9743L25.2911 10.4312L25.9701 11.604C26.0318 11.6657 26.0935 11.7274 26.1553 11.6657L26.5256 11.4805C26.5873 11.4188 26.6491 11.3571 26.5873 11.2954L25.6615 9.62883ZM22.7605 6.85129L24.4887 10.0609L22.5753 11.1102C22.5753 10.8016 22.5136 10.5547 22.5136 10.3078C22.3902 9.62883 22.1433 8.94987 21.7729 8.27092L21.4026 7.59196L22.7605 6.85129Z" fill="white"/>
<path d="M31.9564 7.28333C31.8946 7.15988 31.7712 7.03644 31.6477 6.91299C31.5243 6.72782 31.4009 6.60437 31.4009 6.60437C31.0922 6.23403 30.7836 5.98714 30.4133 5.86369C30.1664 5.80197 29.8578 5.74025 29.5492 5.80197L30.5985 3.33304C30.5985 3.27132 30.5985 3.2096 30.5985 3.14788C30.5367 3.08615 30.475 3.08615 30.4133 3.08615L29.8578 3.27132C29.7961 3.27132 29.7961 3.33304 29.7343 3.33304L28.7468 5.86369L28.1295 4.012C28.1295 3.95028 28.0061 3.88855 27.9444 3.88855L27.5123 4.012C27.4506 4.012 27.4506 4.07372 27.4506 4.07372C27.4506 4.13545 27.4506 4.13545 27.4506 4.19717L28.0678 6.04887L25.7223 4.69096C25.6606 4.69096 25.6606 4.69096 25.5989 4.69096L25.0434 4.87612C24.9816 4.87612 24.9199 4.93785 24.9199 4.99957C24.9199 5.06129 24.9199 5.12302 24.9816 5.12302L27.3271 6.4192C27.0802 6.60437 26.8333 6.78954 26.7099 6.97471C26.5247 7.28333 26.4013 7.65367 26.4013 8.14745C26.4013 8.20918 26.4013 8.33262 26.4013 8.51779C26.4013 8.76469 26.4013 8.88813 26.4013 9.0733C26.4013 9.19675 26.4013 9.32019 26.3396 9.44364C26.3396 9.50536 26.3396 9.56708 26.4013 9.56708C26.4013 9.56708 26.463 9.62881 26.5247 9.62881H26.5865L27.0185 9.50536C27.0802 9.50536 27.142 9.44364 27.142 9.38192C27.142 9.19675 27.2037 8.82641 27.2037 8.20918C27.2037 7.77711 27.3271 7.40677 27.4506 7.2216C27.6357 7.03644 27.8826 6.85127 28.253 6.72782L28.9319 8.70296C28.9319 8.76469 28.9937 8.76468 28.9937 8.76468C29.0554 8.76468 29.0554 8.76468 29.1171 8.76468L29.5492 8.64124C29.6109 8.64124 29.6726 8.51779 29.6726 8.45607L28.9937 6.48093C29.364 6.35748 29.6726 6.29576 29.9195 6.35748C30.1664 6.4192 30.475 6.60437 30.7219 6.91299C31.0922 7.40677 31.4009 7.65367 31.5243 7.83884C31.586 7.90056 31.6477 7.90056 31.7095 7.83884L32.1415 7.65367C32.2033 7.65367 32.265 7.59194 32.265 7.53022C32.265 7.4685 32.265 7.40677 32.2033 7.40677C32.1415 7.4685 32.0181 7.34505 31.9564 7.28333Z" fill="white"/>
<path d="M36.1542 1.97513C36.0925 1.97513 36.0925 1.9134 36.0307 1.97513L35.537 2.03685C35.4752 2.03685 35.4135 2.1603 35.4135 2.22202L35.7221 4.07371L33.3766 4.50578L33.068 2.65408C33.068 2.59236 33.0063 2.59236 33.0063 2.53063C32.9446 2.53063 32.9446 2.46891 32.8829 2.53063L32.3891 2.59236C32.3274 2.59236 32.2656 2.7158 32.2656 2.77753L33.068 7.46849C33.068 7.53021 33.068 7.53021 33.1298 7.59194H33.1915L33.6853 7.53021C33.747 7.53021 33.8087 7.40677 33.8087 7.34504L33.4384 5.24645L35.7838 4.81439L36.1542 6.91298C36.1542 6.9747 36.1542 6.9747 36.2159 7.03643C36.2776 7.03643 36.2776 7.09815 36.3394 7.03643L36.8331 6.9747C36.8949 6.9747 36.8949 6.91298 36.9566 6.91298C36.9566 6.85126 37.0183 6.85126 36.9566 6.78953L36.1542 2.09857C36.2159 2.03685 36.2159 1.97513 36.1542 1.97513Z" fill="white"/>
<path d="M41.4014 3.7034C40.9693 3.45651 40.4756 3.33306 39.8583 3.33306C39.6114 3.33306 39.4263 3.33306 39.2411 3.39478V1.8517C39.2411 1.78998 39.2411 1.78998 39.1794 1.72826C39.1794 1.72826 39.1177 1.66653 39.0559 1.66653H38.5621C38.5004 1.66653 38.377 1.72826 38.4387 1.8517L38.5004 6.60439C38.5004 6.66611 38.5621 6.78956 38.6856 6.78956C38.7473 6.78956 38.8708 6.78956 39.1176 6.78956C39.3028 6.78956 39.488 6.78956 39.6732 6.78956C39.7349 6.78956 39.7349 6.78956 39.7966 6.78956C40.599 6.78956 41.2162 6.54267 41.6483 6.17233C41.9569 5.86371 42.0804 5.49337 42.0804 5.06131C42.0804 4.38235 41.8335 3.95029 41.4014 3.7034ZM41.3397 4.99959C41.3397 5.36993 41.2162 5.61682 40.9693 5.74027C40.6607 5.92544 40.3521 6.04888 39.92 6.04888C39.7349 6.04888 39.5497 6.04888 39.3645 6.04888L39.3028 4.07374C39.488 4.07374 39.6732 4.01201 39.8583 4.01201C40.2904 4.01201 40.599 4.07374 40.9076 4.25891C41.1545 4.38235 41.278 4.62925 41.3397 4.99959Z" fill="white"/>
<path d="M43.0681 1.60482C43.0681 1.60482 43.0063 1.54309 42.9446 1.54309H42.4508C42.3891 1.54309 42.2656 1.60482 42.3274 1.72826L42.3891 6.48095C42.3891 6.54267 42.4508 6.66612 42.5743 6.66612H43.0681C43.1298 6.66612 43.1298 6.66612 43.1915 6.60439C43.1915 6.60439 43.2532 6.54267 43.2532 6.48095L43.1915 1.72826C43.1298 1.66654 43.1298 1.66654 43.0681 1.60482Z" fill="white"/>
<path d="M49.239 2.28376L48.7452 2.22204C48.6835 2.22204 48.6218 2.22204 48.6218 2.28376L46.4615 4.75269C46.2146 4.99958 45.9677 5.3082 45.7208 5.67854C45.7825 5.3082 45.8442 4.87614 45.9059 4.38235L46.2146 2.03687C46.2146 1.97515 46.2146 1.97515 46.2146 1.91342C46.2146 1.8517 46.1528 1.8517 46.0911 1.8517L45.6591 1.78998C45.5973 1.78998 45.4739 1.8517 45.4739 1.91342L44.7949 6.60439C44.7949 6.66611 44.7949 6.66611 44.8566 6.72783C44.8566 6.78956 44.9184 6.78955 44.9801 6.78955L45.4739 6.85128C45.5356 6.85128 45.5973 6.85128 45.5973 6.78955C45.7825 6.60438 46.1528 6.17232 46.6466 5.61682C47.1404 5.06131 47.5107 4.62924 47.7576 4.38235C48.0045 4.07374 48.3131 3.76512 48.56 3.39478C48.4983 3.76512 48.4366 4.19718 48.3749 4.62924L48.0663 6.97473C48.0663 7.03645 48.0663 7.03645 48.128 7.09817C48.128 7.15989 48.1897 7.15989 48.2514 7.15989L48.6835 7.22162C48.7452 7.22162 48.8069 7.15989 48.8687 7.09817L49.5476 2.40721C49.5476 2.34549 49.5476 2.34549 49.4859 2.28376C49.3624 2.28376 49.3007 2.28376 49.239 2.28376Z" fill="white"/>
<path d="M47.4497 1.54308C47.5114 1.54308 47.6348 1.54308 47.6966 1.54308C48.0052 1.54308 48.2521 1.48136 48.4372 1.35791C48.7459 1.17274 48.8693 0.864126 48.9927 0.493787C48.9927 0.432064 48.9927 0.432064 48.9927 0.37034C48.9927 0.308617 48.931 0.308616 48.8693 0.308616L48.4372 0.246894C48.3755 0.246894 48.3138 0.308617 48.2521 0.37034C48.1903 0.55551 48.1286 0.74068 48.0052 0.802403C47.8817 0.92585 47.7583 0.925848 47.5731 0.925848C47.3879 0.925848 47.2645 0.864125 47.2028 0.740679C47.1411 0.617232 47.0793 0.432063 47.0793 0.246894C47.0793 0.18517 47.0176 0.123448 46.9559 0.0617246L46.5238 0C46.4621 0 46.4621 1.41181e-06 46.4004 0.0617246C46.3386 0.0617246 46.3386 0.123448 46.3386 0.185171C46.2769 0.92585 46.6473 1.41963 47.4497 1.54308Z" fill="white"/>
<path d="M55.2886 3.88856L51.8321 2.83926C51.7704 2.83926 51.7704 2.83926 51.7087 2.83926C51.647 2.83926 51.647 2.90099 51.647 2.96271L50.2891 7.53022C50.2891 7.59195 50.2891 7.59195 50.2891 7.65367C50.2891 7.71539 50.3508 7.71539 50.4125 7.71539L50.8446 7.83884C50.9063 7.83884 51.0297 7.83884 51.0297 7.71539L52.2025 3.70339L54.4862 4.38234L53.3135 8.39435C53.3135 8.45607 53.3135 8.57952 53.4369 8.57952L53.869 8.70297C53.869 8.70297 53.869 8.70297 53.9307 8.70297H53.9925C54.0542 8.70297 54.0542 8.64124 54.0542 8.57952L55.4121 4.012C55.4121 3.95028 55.4121 3.95028 55.4121 3.88856C55.3504 3.88856 55.2886 3.88856 55.2886 3.88856Z" fill="white"/>
<path d="M59.4232 5.49336C58.8059 5.18475 58.1887 5.18475 57.5715 5.43164C56.9542 5.67853 56.4604 6.17232 56.0901 6.91299C55.7815 7.59195 55.7198 8.2709 55.9049 8.88814C56.0901 9.50537 56.5222 9.99915 57.1394 10.246C57.3863 10.3695 57.6949 10.4312 58.0035 10.4312C58.0653 10.4312 58.127 10.4312 58.1887 10.4312C58.4356 10.4312 58.6825 10.3695 58.9294 10.3078C59.238 10.246 59.5466 10.0609 59.7935 9.75226C60.0404 9.50537 60.2873 9.13503 60.4725 8.76469C60.7811 8.08573 60.8428 7.40678 60.6576 6.78955C60.4725 6.23404 60.1021 5.80198 59.4232 5.49336ZM59.9787 7.90057C59.9169 8.14746 59.8552 8.33263 59.7935 8.5178C59.5466 9.01158 59.238 9.38192 58.7442 9.56709C58.3121 9.75226 57.8801 9.75226 57.5097 9.56709C57.1394 9.38192 56.8308 9.0733 56.7073 8.64124C56.5839 8.20918 56.6456 7.71539 56.8925 7.22161C57.1394 6.72782 57.448 6.35748 57.8801 6.17232C58.0653 6.04887 58.3122 5.98715 58.4973 5.98715C58.6825 5.98715 58.9294 6.04887 59.1763 6.17232C59.4232 6.29576 59.6083 6.41921 59.7318 6.6661C59.8552 6.85127 59.9787 7.09816 59.9787 7.28333C59.9787 7.4685 59.9787 7.65367 59.9787 7.90057Z" fill="white"/>
<path d="M63.3123 9.01158C63.7444 8.88813 64.2382 8.94986 64.6702 9.25847C65.0406 9.50536 65.2875 9.75226 65.4109 10.0609C65.4109 10.1226 65.4726 10.1226 65.5344 10.1226C65.5961 10.1226 65.5961 10.1226 65.6578 10.1226L66.0281 9.8757C66.0899 9.81398 66.0899 9.75226 66.0899 9.69053C65.9664 9.3202 65.6578 9.01158 65.164 8.70296C64.5468 8.2709 63.8678 8.14745 63.1889 8.33262C62.5099 8.45607 61.9544 8.88813 61.5224 9.56709C61.0903 10.1843 60.9668 10.8633 61.0903 11.4805C61.2137 12.0977 61.5841 12.6532 62.1396 13.0236C62.5716 13.3322 63.0654 13.5174 63.5592 13.5791C63.6209 13.5791 63.6827 13.5174 63.6827 13.4556L63.8061 13.0853C63.8061 13.0236 63.8061 13.0236 63.8061 12.9619C63.8061 12.9001 63.7444 12.9001 63.6827 12.9001C63.2506 12.8384 62.8803 12.715 62.5716 12.5298C62.1396 12.2212 61.8927 11.9126 61.831 11.4188C61.7692 10.925 61.8927 10.4929 62.2013 9.99915C62.4482 9.44364 62.8185 9.13503 63.3123 9.01158Z" fill="white"/>
<path d="M67.3857 15.9246C67.0153 15.8011 66.645 15.616 66.2747 15.3073C65.9043 14.9987 65.7192 14.6284 65.6574 14.1963C65.6574 13.7643 65.7809 13.3322 66.1512 12.9001L68.6819 15.0605C68.7436 15.1222 68.8053 15.1222 68.867 15.0605C68.9288 14.9987 68.9905 14.937 69.1139 14.8136C69.2374 14.6901 69.2991 14.5667 69.4225 14.3815C69.546 14.2581 69.6077 14.0112 69.6694 13.826C69.7312 13.5791 69.7929 13.3939 69.7929 13.147C69.7929 12.9001 69.7312 12.6533 69.6077 12.4064C69.4843 12.1595 69.2991 11.9126 69.0522 11.7274C68.5584 11.2953 67.9412 11.1102 67.324 11.2336C66.7067 11.3571 66.0895 11.7274 65.534 12.3446C65.0402 12.9001 64.7933 13.5174 64.855 14.1346C64.855 14.7518 65.1636 15.3073 65.7192 15.8011C66.2129 16.2332 66.7067 16.4801 67.1388 16.6035C67.1388 16.6035 67.1388 16.6035 67.2005 16.6035C67.2622 16.6035 67.324 16.5418 67.324 16.4801L67.4474 16.1097C67.4474 16.048 67.4474 16.048 67.4474 15.9863L67.3857 15.9246ZM66.645 12.4064C66.8919 12.2212 67.2005 12.036 67.5708 11.9743C67.9412 11.9126 68.2498 11.9743 68.6201 12.2829C68.8053 12.4681 68.9288 12.5915 68.9905 12.7767C69.0522 12.9619 69.0522 13.147 69.0522 13.3322C68.9905 13.5174 68.9905 13.7025 68.867 13.826C68.8053 13.9494 68.7436 14.0112 68.6819 14.1346L66.645 12.4064Z" fill="white"/>
<path d="M74.2366 17.2208C74.2366 17.159 74.2366 17.159 74.1749 17.0973L72.1998 14.8753C72.138 14.8135 72.0146 14.8135 71.9529 14.8753L70.5332 16.1097C70.0394 16.5418 69.6074 16.9121 69.2988 17.0356C68.9901 17.2208 68.7433 17.2208 68.4964 17.159C68.3729 17.0973 68.2495 17.0356 68.126 16.9739C68.0643 16.9121 67.9409 16.9121 67.8791 16.9739L67.6322 17.2825C67.5705 17.3442 67.5705 17.4059 67.6322 17.4676C67.8174 17.6528 68.0026 17.7763 68.2495 17.8997C68.6198 18.0232 69.0519 17.9614 69.4839 17.7763C69.916 17.5911 70.4098 17.159 71.027 16.6652L71.9529 15.8011L73.0639 17.0356L69.916 19.8131C69.916 19.8131 69.8543 19.8749 69.8543 19.9366C69.8543 19.9983 69.8543 19.9983 69.916 20.06L70.2246 20.4304C70.2863 20.4921 70.2863 20.4921 70.3481 20.4921C70.4098 20.4921 70.4098 20.4921 70.4715 20.4304L74.0514 17.2825C74.1749 17.2825 74.1749 17.2825 74.2366 17.2208Z" fill="white"/>
<path d="M75.9658 24.072C76.583 23.64 77.0151 23.1462 77.2003 22.529C77.3854 21.9117 77.262 21.2945 76.8917 20.6773C76.5213 20.1218 76.0275 19.7514 75.3486 19.628C74.6696 19.5045 73.9907 19.6897 73.3117 20.1217C72.6945 20.5538 72.2624 21.0476 72.0773 21.7266C71.8921 22.3438 72.0155 22.961 72.3859 23.5165C72.571 23.7634 72.7562 23.9486 73.0031 24.1338C73.25 24.3189 73.4969 24.4424 73.8055 24.5041C73.9907 24.5658 74.1758 24.5658 74.361 24.5658C74.5462 24.5658 74.6696 24.5658 74.8548 24.5041C75.2251 24.4424 75.5955 24.3189 75.9658 24.072ZM76.3979 22.4055C76.2744 22.5907 76.151 22.8376 76.0275 22.961C75.9041 23.1462 75.7189 23.2696 75.5338 23.3931C75.04 23.7017 74.6079 23.8251 74.1141 23.7634C73.6203 23.7017 73.3117 23.5165 73.0648 23.0845C72.8179 22.7141 72.7562 22.3438 72.8797 21.85C73.0031 21.4179 73.3117 20.9859 73.8055 20.6773C74.2376 20.4304 74.6696 20.2452 75.1017 20.2452C75.1634 20.2452 75.1634 20.2452 75.2251 20.2452C75.7189 20.2452 76.0275 20.4921 76.3362 20.9242C76.4596 21.171 76.583 21.3562 76.583 21.6031C76.5213 21.9734 76.5213 22.2203 76.3979 22.4055Z" fill="white"/>
<path d="M80.534 27.7137L80.2871 27.1582C80.2871 27.0965 80.2254 27.0965 80.2254 27.0965L77.3861 26.1089L79.1761 25.2448C79.2378 25.1831 79.2996 25.1213 79.2378 25.0596L79.0527 24.6275C79.0527 24.5658 78.9909 24.5658 78.9909 24.5658C78.9292 24.5658 78.9292 24.5658 78.8675 24.5658L74.6086 26.6027C74.5469 26.6027 74.5469 26.6644 74.5469 26.6644C74.5469 26.7261 74.5469 26.7261 74.5469 26.7879L74.732 27.2199C74.7938 27.2816 74.8555 27.3434 74.9172 27.2816L76.7689 26.4175C76.9541 26.8496 77.0158 27.2199 77.0158 27.5285C76.9541 27.8372 76.7689 28.2075 76.4603 28.5161C76.1517 28.8864 75.9665 29.1333 75.7813 29.3185C75.7813 29.3802 75.7196 29.442 75.7813 29.442L75.9665 29.874C75.9665 29.9357 76.0282 29.9357 76.09 29.9357C76.1517 29.9357 76.2134 29.9357 76.2134 29.874C76.3368 29.6888 76.5837 29.442 76.8923 29.0099C77.2627 28.5778 77.5096 28.1458 77.5713 27.7754C77.633 27.4668 77.633 27.1582 77.5713 26.7879L80.2254 27.7754C80.2871 27.7754 80.3489 27.7754 80.4106 27.7137C80.534 27.8372 80.534 27.7754 80.534 27.7137Z" fill="white"/>
<path d="M51.8947 52.0944V55.2423H49.1172V52.1561C49.1172 51.7858 49.2406 51.4154 49.5493 51.1685C49.7962 50.9216 50.1665 50.7365 50.5368 50.7365C51.2158 50.6747 51.833 51.292 51.8947 52.0944Z" fill="#EFEFEF"/>
</svg>
