<svg width="91" height="88" viewBox="0 0 91 88" fill="none" xmlns="http://www.w3.org/2000/svg">
<path fill-rule="evenodd" clip-rule="evenodd" d="M44.7512 0.254478C44.1191 0.736052 44.0775 1.33833 44.0775 10.0076V18.5541H34.9147C25.0752 18.5541 24.9019 18.5689 24.2751 19.4665C24.0308 19.8159 23.9851 20.4344 23.9851 23.3838C23.9851 26.6419 24.0105 26.9181 24.3487 27.3496C24.7578 27.8709 25.6622 28.1796 26.7856 28.181L27.5413 28.1821V30.1433V32.1045H14.4634C0.152974 32.1045 0.61439 32.071 0.171112 33.144C0.023886 33.5006 -0.0262562 34.573 0.012684 36.5355C0.0662045 39.2269 0.0944762 39.4305 0.466275 39.8028C0.720009 40.0569 1.16791 40.235 1.71094 40.2976L2.55909 40.3953L2.64799 49.6379L2.7369 58.8805L3.15671 59.2212C3.72747 59.6846 4.35514 59.6493 4.87861 59.1243L5.31513 58.6867V49.4951V40.3034L16.3838 40.3493L27.4524 40.3953L27.4975 62.905L27.5427 85.4147H16.4289H5.31513V74.7411C5.31513 64.2128 5.31015 64.0611 4.94653 63.5977C4.48476 63.0089 3.53313 62.9535 3.00361 63.4845C2.65546 63.8336 2.64799 64.0787 2.64799 75.2546V86.668L3.25663 87.3341L3.86527 88H45.4829H87.1006L87.6818 87.4172L88.2631 86.8343L88.352 63.6148L88.4409 40.3953L89.2891 40.2976C89.8321 40.235 90.28 40.0569 90.5337 39.8028C90.9055 39.4305 90.9338 39.2269 90.9873 36.5355C91.0263 34.573 90.9761 33.5006 90.8289 33.144C90.3856 32.071 90.847 32.1045 76.5366 32.1045H63.4587V30.1433V28.1821L64.2144 28.181C65.3378 28.1796 66.2421 27.8709 66.6513 27.3496C66.9897 26.9181 67.0149 26.6419 67.0149 23.3681C67.0149 20.0942 66.9897 19.8181 66.6513 19.3866C66.4511 19.1316 65.9911 18.8405 65.6289 18.7396C65.2169 18.6249 61.5526 18.5557 55.8513 18.5552L46.7326 18.5541L46.7831 16.6375L46.8336 14.7208L52.6707 14.6316L58.5078 14.5425L59.1163 13.8766L59.7247 13.2105L59.724 8.52772C59.7235 4.14523 59.7004 3.807 59.3645 3.25465C58.7253 2.20324 58.3889 2.151 52.2624 2.151H46.7447V1.44477C46.7447 0.279617 45.6088 -0.398617 44.7512 0.254478ZM57.0576 8.39132V11.9572H51.9011H46.7447V8.39132V4.82542H51.9011H57.0576V8.39132ZM64.3478 23.3681V25.5076H55.9907C47.8707 25.5076 47.6236 25.5178 47.2781 25.8642C46.8288 26.3148 46.8217 27.1262 47.2623 27.672L47.6019 28.0929L54.1968 28.1457L60.7916 28.1985V56.8066V85.4147H59.1024H57.4132V83.5369C57.4132 82.3445 57.3238 81.4443 57.168 81.0707C56.8789 80.3768 56.1099 79.7243 55.4177 79.5854L54.9239 79.4864V71.3906C54.9239 62.6062 54.9127 62.4958 53.9434 61.7315C53.4573 61.3479 53.3896 61.3449 45.5 61.3449C37.6104 61.3449 37.5427 61.3479 37.0566 61.7315C36.0873 62.4958 36.0761 62.6062 36.0761 71.3906V79.4864L35.5823 79.5854C34.8901 79.7243 34.1211 80.3768 33.832 81.0707C33.6762 81.4443 33.5868 82.3445 33.5868 83.5369V85.4147H31.8976H30.2084V56.7984V28.1821H36.1385C42.2495 28.1821 43.027 28.1047 43.37 27.4619C43.6499 26.9376 43.5717 26.2484 43.1885 25.8642C42.8434 25.5182 42.5958 25.5076 34.7425 25.5076H26.6522V23.3681V21.2286H45.5H64.3478V23.3681ZM43.8949 31.5716C40.3233 32.1295 37.1408 34.4547 35.6001 37.6317C34.6563 39.5778 34.3937 40.7087 34.3994 42.8022C34.4106 47.0474 36.6963 50.7198 40.5651 52.7088C42.1108 53.5033 43.6133 53.8512 45.5 53.8512C47.4603 53.8512 48.9511 53.4873 50.6758 52.5874C53.1961 51.2727 55.1154 48.9743 56.0937 46.0989C56.5076 44.8824 56.5779 44.3878 56.5745 42.7131C56.5713 41.0897 56.4904 40.5037 56.1047 39.3116C55.2959 36.8105 53.796 34.8251 51.6053 33.3558C49.4168 31.8881 46.3752 31.1844 43.8949 31.5716ZM47.7226 34.4561C50.7139 35.2017 53.3099 38.1234 53.8536 41.3561C54.5366 45.4162 51.9397 49.6063 47.9731 50.8442C46.5452 51.29 44.4548 51.29 43.0269 50.8442C39.0692 49.6092 36.4605 45.4333 37.1364 41.4151C37.9929 36.3235 42.728 33.2109 47.7226 34.4561ZM27.5413 36.2053V37.6317H15.0946H2.64799V36.2053V34.779H15.0946H27.5413V36.2053ZM88.352 36.2053V37.6317H75.9054H63.4587V36.2053V34.779H75.9054H88.352V36.2053ZM44.5052 38.1851C44.2151 38.5062 44.1575 38.9047 44.1042 40.9597C43.9952 45.1705 44.08 45.2984 46.9804 45.2984C48.8554 45.2984 49.0208 45.27 49.3809 44.8858C49.8937 44.3383 49.8736 43.6058 49.3309 43.0617C48.9639 42.6935 48.7239 42.6239 47.8195 42.6239H46.7447V40.512C46.7447 38.6925 46.6997 38.3593 46.4194 38.1051C45.9531 37.6818 44.9207 37.7249 44.5052 38.1851ZM85.6849 62.8604V85.4147H74.5718H63.4587V62.9793C63.4587 50.6397 63.5121 40.4903 63.5773 40.425C63.6424 40.3596 68.6433 40.3061 74.6904 40.3061H85.6849V62.8604ZM9.00751 47.0663L8.42679 47.5863L8.37167 51.1937C8.31264 55.0702 8.39158 55.5537 9.18604 56.1804C9.61029 56.5151 9.93817 56.531 16.4078 56.5302C22.8066 56.5297 23.2166 56.5103 23.752 56.1829C24.1328 55.9501 24.3805 55.614 24.5066 55.1584C24.7959 54.114 24.7514 48.4503 24.4485 47.723C23.9474 46.5206 24.1222 46.5464 16.4803 46.5464H9.58824L9.00751 47.0663ZM67.2135 46.8372C66.4372 47.3823 66.3037 48.0726 66.3037 51.5387C66.3037 55.1431 66.4456 55.7839 67.3478 56.2517C67.8088 56.4907 68.8547 56.531 74.6123 56.531C81.9797 56.531 81.8333 56.5511 82.3965 55.4592C82.7818 54.712 82.7818 48.3654 82.3965 47.6182C81.8325 46.5247 81.9927 46.5464 74.4829 46.5464C68.4328 46.5464 67.5789 46.5807 67.2135 46.8372ZM15.0946 51.5387V53.8565H13.0498H11.005V51.5387V49.2209H13.0498H15.0946V51.5387ZM22.0292 51.5387V53.8565H19.8955H17.7618V51.5387V49.2209H19.8955H22.0292V51.5387ZM73.2382 51.5387V53.8565H71.1045H68.9708V51.5387V49.2209H71.1045H73.2382V51.5387ZM79.995 51.5387V53.8565H77.9502H75.9054V51.5387V49.2209H77.9502H79.995V51.5387ZM9.00751 60.4385L8.42679 60.9584L8.37167 64.5658C8.31264 68.4423 8.39158 68.9258 9.18604 69.5525C9.61029 69.8872 9.93817 69.9031 16.4078 69.9024C22.8066 69.9018 23.2166 69.8824 23.752 69.555C24.1328 69.3222 24.3805 68.9861 24.5066 68.5306C24.7959 67.4861 24.7514 61.8224 24.4485 61.0951C23.9474 59.8927 24.1222 59.9186 16.4803 59.9186H9.58824L9.00751 60.4385ZM67.2135 60.2094C66.4372 60.7544 66.3037 61.4448 66.3037 64.9108C66.3037 68.4218 66.4329 69.0617 67.251 69.5993C67.6666 69.8722 68.407 69.9031 74.5259 69.9031C81.9884 69.9031 81.8328 69.9243 82.3965 68.8313C82.7818 68.0841 82.7818 61.7375 82.3965 60.9903C81.8325 59.8968 81.9927 59.9186 74.4829 59.9186C68.4328 59.9186 67.5789 59.9528 67.2135 60.2094ZM15.0946 64.9108V67.2286H13.0498H11.005V64.9108V62.593H13.0498H15.0946V64.9108ZM22.0292 64.9108V67.2286H19.8955H17.7618V64.9108V62.593H19.8955H22.0292V64.9108ZM73.2382 64.9108V67.2286H71.1045H68.9708V64.9108V62.593H71.1045H73.2382V64.9108ZM79.995 64.9108V67.2286H77.9502H75.9054V64.9108V62.593H77.9502H79.995V64.9108ZM44.0775 71.7752V79.531H41.4104H38.7433V71.7752V64.0193H41.4104H44.0775V71.7752ZM52.2567 71.7798V79.5403L49.5452 79.4911L46.8336 79.4418L46.7872 71.7306L46.7409 64.0193H49.4987H52.2567V71.7798ZM54.7461 83.8101V85.4147H45.5H36.2539V83.8101V82.2054H45.5H54.7461V83.8101Z" fill="black"/>
</svg>
