<svg width="90" height="90" viewBox="0 0 90 90" fill="none" xmlns="http://www.w3.org/2000/svg">
<path d="M85.7812 85.7812V64.6875C85.7812 64.3145 85.6331 63.9569 85.3694 63.6931C85.1056 63.4294 84.748 63.2812 84.375 63.2812H82.9688V8.4375C82.9688 8.06454 82.8206 7.70685 82.5569 7.44313C82.2931 7.17941 81.9355 7.03125 81.5625 7.03125H77.3438V2.8125C77.3438 2.43954 77.1956 2.08185 76.9319 1.81813C76.6681 1.55441 76.3105 1.40625 75.9375 1.40625H59.0625C58.6895 1.40625 58.3319 1.55441 58.0681 1.81813C57.8044 2.08185 57.6562 2.43954 57.6562 2.8125V7.03125H53.4375C53.0645 7.03125 52.7069 7.17941 52.4431 7.44313C52.1794 7.70685 52.0312 8.06454 52.0312 8.4375V32.3438H42.1875C41.8145 32.3438 41.4569 32.4919 41.1931 32.7556C40.9294 33.0194 40.7812 33.377 40.7812 33.75V59.0625H37.9688V32.3438C37.9688 31.9708 37.8206 31.6131 37.5569 31.3494C37.2931 31.0857 36.9355 30.9375 36.5625 30.9375H32.2594C31.9448 28.4604 30.8151 26.1583 29.0482 24.3939C27.2813 22.6295 24.9776 21.5032 22.5 21.1922V15.4688H19.6875V21.1922C17.2099 21.5032 14.9062 22.6295 13.1393 24.3939C11.3724 26.1583 10.2427 28.4604 9.92813 30.9375H5.625C5.25204 30.9375 4.89435 31.0857 4.63063 31.3494C4.36691 31.6131 4.21875 31.9708 4.21875 32.3438V85.7812H1.40625V88.5938H88.5938V85.7812H85.7812ZM63.2812 15.4688V32.3438H60.4688V15.4688H63.2812ZM66.0938 33.75V15.4688H68.9062V63.2812H66.0938V33.75ZM71.7188 63.2812V15.4688H74.5312V63.2812H71.7188ZM82.9688 66.0938V85.7812H59.0625V66.0938H82.9688ZM77.3438 63.2812V15.4688H80.1562V63.2812H77.3438ZM59.0625 9.84375C59.4355 9.84375 59.7931 9.69559 60.0569 9.43187C60.3206 9.16815 60.4688 8.81046 60.4688 8.4375V4.21875H74.5312V8.4375C74.5312 8.81046 74.6794 9.16815 74.9431 9.43187C75.2069 9.69559 75.5645 9.84375 75.9375 9.84375H80.1562V12.6562H54.8438V9.84375H59.0625ZM54.8438 15.4688H57.6562V32.3438H54.8438V15.4688ZM43.5938 35.1562H63.2812V63.2812H57.6562C57.2833 63.2812 56.9256 63.4294 56.6619 63.6931C56.3982 63.9569 56.25 64.3145 56.25 64.6875V85.7812H50.625V60.4688C50.625 60.0958 50.4768 59.7381 50.2131 59.4744C49.9494 59.2107 49.5917 59.0625 49.2188 59.0625H43.5938V35.1562ZM47.8125 85.7812H25.3125V61.875H47.8125V85.7812ZM21.0938 23.9062C23.3315 23.9062 25.4776 24.7952 27.06 26.3775C28.6423 27.9599 29.5312 30.106 29.5312 32.3438C29.5312 32.7167 29.6794 33.0744 29.9431 33.3381C30.2069 33.6018 30.5645 33.75 30.9375 33.75H35.1562V50.625H33.0469C32.4874 50.625 31.9509 50.4028 31.5553 50.0072C31.1597 49.6116 30.9375 49.0751 30.9375 48.5156C30.9375 47.2103 30.4189 45.9584 29.4959 45.0353C28.5729 44.1123 27.321 43.5938 26.0156 43.5938H21.7969C21.2374 43.5938 20.7009 43.3715 20.3053 42.9759C19.9097 42.5803 19.6875 42.0438 19.6875 41.4844C19.6875 40.179 19.1689 38.9271 18.2459 38.0041C17.3229 37.0811 16.071 36.5625 14.7656 36.5625C14.2062 36.5625 13.6697 36.3403 13.2741 35.9447C12.8785 35.5491 12.6562 35.0126 12.6562 34.4531V32.3438C12.6562 30.106 13.5452 27.9599 15.1275 26.3775C16.7099 24.7952 18.856 23.9062 21.0938 23.9062ZM7.03125 33.75H9.84375V34.4531C9.84375 35.7585 10.3623 37.0104 11.2853 37.9334C12.2084 38.8564 13.4603 39.375 14.7656 39.375C15.3251 39.375 15.8616 39.5972 16.2572 39.9928C16.6528 40.3884 16.875 40.9249 16.875 41.4844C16.875 42.7897 17.3936 44.0416 18.3166 44.9647C19.2396 45.8877 20.4915 46.4062 21.7969 46.4062H26.0156C26.4503 46.4095 26.8736 46.5461 27.2282 46.7976C27.5828 47.0491 27.8516 47.4033 27.9984 47.8125H23.9062C23.5333 47.8125 23.1756 47.9607 22.9119 48.2244C22.6482 48.4881 22.5 48.8458 22.5 49.2188V54.8438C22.5 55.2167 22.6482 55.5744 22.9119 55.8381C23.1756 56.1018 23.5333 56.25 23.9062 56.25H29.5312C29.9042 56.25 30.2619 56.1018 30.5256 55.8381C30.7893 55.5744 30.9375 55.2167 30.9375 54.8438V52.9453C31.5945 53.2662 32.3156 53.4345 33.0469 53.4375H35.1562V59.0625H23.9062C23.5333 59.0625 23.1756 59.2107 22.9119 59.4744C22.6482 59.7381 22.5 60.0958 22.5 60.4688V85.7812H7.03125V33.75ZM28.125 50.625V53.4375H25.3125V50.625H28.125Z" fill="black"/>
<path d="M18.2812 47.8125H12.6562C12.2833 47.8125 11.9256 47.9607 11.6619 48.2244C11.3982 48.4881 11.25 48.8458 11.25 49.2188V54.8438C11.25 55.2167 11.3982 55.5744 11.6619 55.8381C11.9256 56.1018 12.2833 56.25 12.6562 56.25H18.2812C18.6542 56.25 19.0119 56.1018 19.2756 55.8381C19.5393 55.5744 19.6875 55.2167 19.6875 54.8438V49.2188C19.6875 48.8458 19.5393 48.4881 19.2756 48.2244C19.0119 47.9607 18.6542 47.8125 18.2812 47.8125ZM16.875 53.4375H14.0625V50.625H16.875V53.4375Z" fill="black"/>
<path d="M18.2812 59.0625H12.6562C12.2833 59.0625 11.9256 59.2107 11.6619 59.4744C11.3982 59.7381 11.25 60.0958 11.25 60.4688V66.0938C11.25 66.4667 11.3982 66.8244 11.6619 67.0881C11.9256 67.3518 12.2833 67.5 12.6562 67.5H18.2812C18.6542 67.5 19.0119 67.3518 19.2756 67.0881C19.5393 66.8244 19.6875 66.4667 19.6875 66.0938V60.4688C19.6875 60.0958 19.5393 59.7381 19.2756 59.4744C19.0119 59.2107 18.6542 59.0625 18.2812 59.0625ZM16.875 64.6875H14.0625V61.875H16.875V64.6875Z" fill="black"/>
<path d="M18.2812 70.3125H12.6562C12.2833 70.3125 11.9256 70.4607 11.6619 70.7244C11.3982 70.9881 11.25 71.3458 11.25 71.7188V77.3438C11.25 77.7167 11.3982 78.0744 11.6619 78.3381C11.9256 78.6018 12.2833 78.75 12.6562 78.75H18.2812C18.6542 78.75 19.0119 78.6018 19.2756 78.3381C19.5393 78.0744 19.6875 77.7167 19.6875 77.3438V71.7188C19.6875 71.3458 19.5393 70.9881 19.2756 70.7244C19.0119 70.4607 18.6542 70.3125 18.2812 70.3125ZM16.875 75.9375H14.0625V73.125H16.875V75.9375Z" fill="black"/>
<path d="M32.3438 64.6875H29.5312V70.3125H32.3438V64.6875Z" fill="black"/>
<path d="M37.9688 64.6875H35.1562V70.3125H37.9688V64.6875Z" fill="black"/>
<path d="M43.5938 64.6875H40.7812V70.3125H43.5938V64.6875Z" fill="black"/>
<path d="M32.3438 73.125H29.5312V78.75H32.3438V73.125Z" fill="black"/>
<path d="M37.9688 73.125H35.1562V78.75H37.9688V73.125Z" fill="black"/>
<path d="M43.5938 73.125H40.7812V78.75H43.5938V73.125Z" fill="black"/>
<path d="M80.1562 68.9062H61.875V71.7188H80.1562V68.9062Z" fill="black"/>
<path d="M80.1562 74.5312H61.875V77.3438H80.1562V74.5312Z" fill="black"/>
<path d="M80.1562 80.1562H61.875V82.9688H80.1562V80.1562Z" fill="black"/>
<path d="M60.4688 37.9688H46.4062V40.7812H60.4688V37.9688Z" fill="black"/>
<path d="M60.4688 43.5938H46.4062V46.4062H60.4688V43.5938Z" fill="black"/>
<path d="M60.4688 49.2188H46.4062V52.0312H60.4688V49.2188Z" fill="black"/>
<path d="M60.4688 54.8438H46.4062V57.6562H60.4688V54.8438Z" fill="black"/>
<path d="M37.9688 25.3125C38.8031 25.3125 39.6188 25.0651 40.3126 24.6015C41.0063 24.138 41.5471 23.4791 41.8664 22.7082C42.1857 21.9373 42.2692 21.0891 42.1064 20.2707C41.9437 19.4524 41.5419 18.7006 40.9519 18.1106C40.3619 17.5206 39.6101 17.1188 38.7918 16.9561C37.9734 16.7933 37.1252 16.8768 36.3543 17.1961C35.5834 17.5154 34.9245 18.0562 34.461 18.7499C33.9974 19.4437 33.75 20.2594 33.75 21.0938C33.75 22.2126 34.1945 23.2857 34.9856 24.0769C35.7768 24.868 36.8499 25.3125 37.9688 25.3125ZM37.9688 19.6875C38.2469 19.6875 38.5188 19.77 38.75 19.9245C38.9813 20.079 39.1615 20.2986 39.268 20.5556C39.3744 20.8126 39.4022 21.0953 39.348 21.3681C39.2937 21.6409 39.1598 21.8915 38.9631 22.0881C38.7665 22.2848 38.5159 22.4187 38.2431 22.473C37.9703 22.5272 37.6876 22.4994 37.4306 22.393C37.1736 22.2865 36.954 22.1063 36.7995 21.875C36.645 21.6438 36.5625 21.3719 36.5625 21.0938C36.5625 20.7208 36.7107 20.3631 36.9744 20.0994C37.2381 19.8357 37.5958 19.6875 37.9688 19.6875Z" fill="black"/>
<path d="M9.84375 14.0625C10.6781 14.0625 11.4938 13.8151 12.1876 13.3515C12.8813 12.888 13.4221 12.2291 13.7414 11.4582C14.0607 10.6873 14.1442 9.83907 13.9814 9.02071C13.8187 8.20236 13.4169 7.45065 12.8269 6.86064C12.2369 6.27064 11.4851 5.86885 10.6668 5.70606C9.84843 5.54328 9.00018 5.62683 8.2293 5.94614C7.45843 6.26544 6.79955 6.80617 6.33599 7.49994C5.87243 8.19371 5.625 9.00936 5.625 9.84375C5.625 10.9626 6.06947 12.0357 6.86064 12.8269C7.65181 13.618 8.72487 14.0625 9.84375 14.0625ZM9.84375 8.4375C10.1219 8.4375 10.3938 8.51998 10.625 8.6745C10.8563 8.82902 11.0365 9.04864 11.143 9.3056C11.2494 9.56256 11.2772 9.84531 11.223 10.1181C11.1687 10.3909 11.0348 10.6415 10.8381 10.8381C10.6415 11.0348 10.3909 11.1687 10.1181 11.223C9.84531 11.2772 9.56256 11.2494 9.3056 11.143C9.04864 11.0365 8.82902 10.8563 8.6745 10.625C8.51998 10.3938 8.4375 10.1219 8.4375 9.84375C8.4375 9.47079 8.58566 9.11311 8.84938 8.84938C9.1131 8.58566 9.47079 8.4375 9.84375 8.4375Z" fill="black"/>
</svg>
