<svg width="57" height="88" viewBox="0 0 57 88" fill="none" xmlns="http://www.w3.org/2000/svg">
<path fill-rule="evenodd" clip-rule="evenodd" d="M1.21707 0.341697C0.0828747 1.03368 -0.0442334 1.47421 0.0103892 4.52336L0.0591711 7.24335L0.78919 7.92417C1.51646 8.60275 1.51921 8.6098 1.52333 9.8451C1.52917 11.6211 1.7432 12.3764 2.39609 12.9257C2.86519 13.3205 3.13521 13.3991 4.16686 13.4413L5.38402 13.4914L5.42851 22.5023C5.4711 31.1219 5.45891 31.5287 5.14938 31.8698C4.97143 32.0659 4.73885 32.3952 4.63253 32.6016C4.36835 33.115 4.3589 55.281 4.62256 55.9774C4.72322 56.2435 4.9558 56.6216 5.13942 56.8178C5.462 57.1625 5.47162 57.4637 5.42851 65.8414L5.38402 74.5086L4.16686 74.5587C2.10924 74.6431 1.53226 75.4279 1.52333 78.1549C1.51921 79.3902 1.51646 79.3972 0.78919 80.0758L0.0591711 80.7566L0.0103892 83.4766C-0.0442334 86.5258 0.0828747 86.9663 1.21707 87.6583C1.76054 87.99 2.10357 88 13.0277 88C23.9519 88 24.295 87.99 24.8384 87.6583C25.9685 86.9689 26.0999 86.5199 26.0451 83.5323C26.0022 81.1827 25.9558 80.8137 25.6528 80.4062C25.4638 80.152 25.1352 79.8488 24.9228 79.7326C24.5715 79.5403 24.5361 79.3947 24.5353 78.132C24.5334 75.3983 24.0517 74.729 21.9896 74.5946L20.6715 74.5086L20.627 65.8414C20.5844 57.558 20.5968 57.1586 20.9061 56.8178C21.4891 56.1756 21.6162 55.7292 21.6162 54.3241V52.9377H22.9215C24.3716 52.9377 25.2521 52.6284 25.6854 51.9668C25.9475 51.5663 25.9788 51.5627 29.1813 51.5627H32.4128L32.7687 51.1098C33.1749 50.5931 33.2022 50.374 32.9341 49.785C32.6187 49.0925 32.0988 48.9845 29.0801 48.9845H26.254V44V39.0155H34.9283H43.6027V43.9893V48.9632L40.4095 49.0168C37.2912 49.0692 37.2084 49.0799 36.8882 49.4763C36.4456 50.0237 36.4725 50.7329 36.9533 51.1849C37.3211 51.5306 37.5454 51.5576 40.4316 51.6016L43.5168 51.6486L43.5668 52.8666C43.6513 54.9314 44.4333 55.5029 47.1865 55.5118L48.4514 55.5159L49.0988 56.2464L49.7463 56.9769L52.4716 57.0257C55.5271 57.0804 55.9661 56.9539 56.658 55.8183C56.9756 55.2971 56.9995 54.9453 57 50.7695C57.0007 46.4881 56.9842 46.2599 56.6446 45.8279C56.3864 45.4995 56.1303 45.375 55.7124 45.375C55.2945 45.375 55.0384 45.4995 54.7802 45.8279C54.4425 46.2573 54.4241 46.4931 54.4241 50.3828V54.4847H52.7064H50.9888V44V33.5153H52.7064H54.4241V37.2776C54.4241 40.6975 54.4533 41.0762 54.7455 41.4371C55.1921 41.989 56.2327 41.989 56.6793 41.4371C56.9735 41.0736 57.0007 40.6893 57 36.8909C56.9995 33.054 56.9737 32.6998 56.658 32.1817C55.9664 31.0468 55.5262 30.9196 52.479 30.9743L49.7608 31.0231L49.0804 31.7536C48.4022 32.4813 48.3952 32.4841 47.1607 32.4882C45.3858 32.494 44.6311 32.7082 44.0821 33.3615C43.6875 33.8309 43.609 34.1011 43.5668 35.1334L43.5168 36.3514L34.5485 36.3959C25.8337 36.439 25.5643 36.4306 25.0154 36.0958C24.5708 35.8245 24.1484 35.751 23.0333 35.7505L21.6162 35.7498V34.3634C21.6162 32.9583 21.4891 32.5119 20.9061 31.8698C20.5966 31.5287 20.5844 31.1219 20.627 22.5023L20.6715 13.4914L21.9896 13.4054C24.0517 13.271 24.5334 12.6017 24.5353 9.86796C24.5361 8.60533 24.5715 8.45975 24.9228 8.26741C25.1354 8.15122 25.4638 7.84803 25.6528 7.59382C25.9558 7.18629 26.0022 6.81726 26.0451 4.46767C26.0999 1.48006 25.9685 1.03111 24.8384 0.341697C24.295 0.00996904 23.9519 0 13.0277 0C2.10357 0 1.76054 0.00996904 1.21707 0.341697ZM23.5057 4.29579V6.01459H13.0277H2.54982V4.29579V2.57699H13.0277H23.5057V4.29579ZM21.9597 9.71V10.8272H13.0277H4.09575V9.71V8.59278H13.0277H21.9597V9.71ZM18.0091 22.2572V31.109H13.0277H8.04644V22.2572V13.4054H13.0277H18.0091V22.2572ZM19.0397 34.8763C19.0397 35.5303 19.0835 36.1795 19.1369 36.319C19.1974 36.4765 18.8026 37.0512 18.0944 37.8369C17.3864 38.6226 16.6876 39.6401 16.2493 40.5239C15.5806 41.8718 15.5397 42.0443 15.4667 43.8171C15.4023 45.3823 15.4488 45.8798 15.7518 46.8635C16.2237 48.3948 16.8778 49.5001 18.126 50.8752L19.1403 51.9924L19.0723 53.4964L19.0045 55.0003H13.0101H7.01582V44.3438V33.6872H13.0277H19.0397V34.8763ZM48.4122 44V52.9377H47.2957H46.1792V44V35.0623H47.2957H48.4122V44ZM23.6774 44.3438V50.3596H22.4029H21.1282L20.0782 49.1994C19.5005 48.5613 18.8181 47.6138 18.5615 47.0938C18.1436 46.247 18.0949 45.9605 18.0949 44.3438C18.0949 42.7219 18.1429 42.4412 18.5683 41.5744C18.8287 41.044 19.5119 40.0964 20.0866 39.4689L21.1313 38.328H22.4045H23.6774V44.3438ZM18.0091 66.0865V74.5946H13.0277H8.04644V66.0865V57.5785H13.0277H18.0091V66.0865ZM21.9597 78.29V79.4072H13.0277H4.09575V78.29V77.1728H13.0277H21.9597V78.29ZM23.5057 83.7042V85.423H13.0277H2.54982V83.7042V81.9854H13.0277H23.5057V83.7042Z" fill="black"/>
</svg>
