<svg width="88" height="89" viewBox="0 0 88 89" fill="none" xmlns="http://www.w3.org/2000/svg">
<path fill-rule="evenodd" clip-rule="evenodd" d="M39.3711 0.0388688C32.2769 1.12417 26.6414 4.77038 23.3284 10.4188L22.6446 11.5847H21.5263C19.8007 11.5847 16.8667 12.0738 15.1313 12.6505C11.7266 13.7823 9.15024 15.3812 6.48091 18.0188C2.11514 22.3325 -0.0228351 27.3823 0.000183889 33.3256C0.0219822 38.9073 1.96465 43.819 5.7954 47.9769C6.86508 49.138 9.54872 51.2716 10.6409 51.8292C10.9525 51.9885 11.2077 52.196 11.2077 52.2906C11.2077 52.3852 10.6976 53.4778 10.0741 54.7186C9.10159 56.6543 8.94063 57.107 8.94063 57.9064C8.94063 59.8032 10.3054 61.3115 12.1607 61.4651L13.1259 61.5449V67.324C13.1259 73.2793 13.2019 74.0407 13.8303 74.3761C14.3431 74.6498 15.0171 74.5733 15.3929 74.1985C15.7298 73.8625 15.7417 73.6188 15.7417 67.0193C15.7417 59.4448 15.7682 59.626 14.5909 59.1353C14.2709 59.0019 13.5805 58.8929 13.0568 58.8929C11.9924 58.8929 11.5564 58.6106 11.5564 57.9213C11.5564 57.6877 12.0665 56.4812 12.6899 55.2404C14.4516 51.7342 14.3286 51.1176 11.4991 49.2702C8.25389 47.1516 6.26205 44.9638 4.66485 41.7638C1.95384 36.3323 1.87118 30.4342 4.43309 25.2042C7.47334 18.9975 13.3469 14.9394 20.2606 14.2686C21.4841 14.1498 21.5462 14.1607 21.4227 14.4727C20.8835 15.8351 20.2757 19.2917 20.2757 20.9964C20.2757 22.0861 20.7013 22.6117 21.5836 22.6117C22.4901 22.6117 22.8914 22.0913 22.8922 20.914C22.8936 19.1559 23.8275 14.7375 24.2532 14.475C24.3255 14.4305 24.8923 14.5018 25.5128 14.6335C32.4062 16.0964 37.9123 21.2164 39.882 27.9954C42.1846 35.9208 38.8313 44.8335 31.945 49.091C31.3482 49.4599 30.5461 50.0426 30.1622 50.3859C29.5423 50.9404 29.4556 51.1163 29.3854 51.96C29.3112 52.8531 29.3754 53.047 30.4587 55.2032C32.0475 58.3655 31.9888 58.8929 30.0473 58.8929C29.5583 58.8929 28.8964 59.0019 28.5764 59.1353C27.3647 59.6403 27.4256 59.0178 27.4256 70.9066C27.4256 78.2139 27.3649 81.7991 27.235 82.171C27.093 82.5767 26.4581 83.1476 24.7545 84.4007C23.4951 85.3272 22.2524 86.165 21.9928 86.2628C21.3554 86.5028 21.1039 86.3713 18.3976 84.383C16.7101 83.1432 16.0718 82.57 15.9313 82.168C15.827 81.8695 15.7417 80.7818 15.7417 79.7508C15.7417 77.9329 15.7277 77.8654 15.2822 77.5158C14.684 77.0465 14.3018 77.0608 13.7024 77.5748C13.2412 77.9703 13.2098 78.0877 13.154 79.6255C13.0809 81.6368 13.3387 83.1076 13.9169 83.9789C14.3135 84.5765 18.2171 87.6312 19.698 88.5028C20.4709 88.9576 21.9295 89.0783 22.8375 88.7625C23.6711 88.4725 27.434 85.806 28.6632 84.6341C30.0644 83.2982 30.0414 83.514 30.0414 71.7318V61.5018H30.7445C32.7325 61.5018 34.2267 59.9737 34.2267 57.9408C34.2267 57.0992 34.0807 56.6842 33.0932 54.7186C32.4697 53.4778 31.9624 52.4028 31.9657 52.3296C31.9691 52.2565 32.6547 51.7662 33.4895 51.2401C36.057 49.6217 39.6196 45.7342 40.6826 43.3911C40.9071 42.8965 41.6053 42.7177 43.3129 42.7177C44.4961 42.7177 47.3264 42.139 48.8751 41.5803C51.1502 40.7598 53.3359 39.5337 55.5454 37.8386C55.8778 37.5837 56.0255 37.5419 56.0267 37.7028C56.0306 38.2216 56.9614 39.8932 57.6224 40.5684C58.1961 41.1544 58.2791 41.3168 58.0667 41.4381C57.923 41.52 53.2249 45.632 47.6262 50.5757C36.4293 60.4629 36.6543 60.2248 36.6449 62.1933C36.6334 64.6054 38.4032 66.4119 40.8098 66.4441L41.8997 66.4587V76.0045C41.8997 83.0194 41.9562 85.7401 42.1128 86.2663C42.3932 87.2075 43.6791 88.4901 44.6229 88.7698C45.6593 89.0767 78.9465 89.0767 79.9829 88.7698C80.9267 88.4901 82.2126 87.2075 82.493 86.2663C82.6402 85.7716 82.7061 83.9374 82.7061 80.3327C82.7061 75.3175 82.6922 75.0972 82.3446 74.6568C82.0813 74.3228 81.823 74.1985 81.3923 74.1985C80.5076 74.1985 80.0903 74.7385 80.0903 75.8837V76.8074H74.3424H68.5942L68.4174 76.1526C68.005 74.6246 66.8601 73.3708 65.1707 72.5961C64.433 72.2578 64.018 72.2006 62.2992 72.1995C60.3785 72.1983 60.2388 72.2235 59.124 72.7709C57.7238 73.4584 56.857 74.4035 56.3467 75.7993L55.9782 76.8074H50.2469H44.5155V70.7441V64.6808L53.229 57.0039C58.7888 52.1054 62.0744 49.3269 62.3069 49.3269C62.5394 49.3269 65.8264 52.1042 71.3809 56.9936L80.0903 64.6601V67.5889C80.0903 69.1996 80.1412 70.65 80.2037 70.8119C80.3742 71.2553 81.2957 71.5868 81.8124 71.3908C82.5941 71.0944 82.6946 70.7726 82.7005 68.5458L82.7061 66.4587L83.796 66.4441C86.191 66.4119 87.9932 64.6254 88 62.2763C88.005 60.545 87.5881 59.926 84.6973 57.375L82.1829 55.1562V49.4354C82.1829 43.1406 82.1369 42.7851 81.1771 41.6668C80.099 40.4105 79.478 40.2035 76.777 40.1994C74.6974 40.1961 74.3411 40.2394 73.7229 40.5695C72.1742 41.3969 71.5222 42.4216 71.3816 44.2496L71.2838 45.5205L68.8352 43.3861L66.3868 41.2516L67.0425 40.5777C67.4032 40.207 67.9164 39.4607 68.183 38.9193C68.6153 38.0416 68.6678 37.7458 68.6676 36.1954C68.6673 34.5791 68.6281 34.3811 68.1126 33.3972C67.0038 31.2804 64.8557 29.8742 62.6377 29.8131C62.0699 29.7975 61.6053 29.7733 61.6053 29.7594C61.6053 29.7455 61.804 29.1529 62.0467 28.4426C62.6925 26.5532 62.9881 25.148 63.1563 23.1696C64.0459 12.7136 57.2406 3.20574 47.0069 0.606219C45.3006 0.172793 44.5221 0.0734803 42.4228 0.0214761C41.0321 -0.0129615 39.6588 -0.00513477 39.3711 0.0388688ZM44.8771 2.82188C50.9348 3.85883 55.9629 7.59688 58.653 13.0631C60.6577 17.1363 61.1526 21.7523 60.0474 26.0629C58.114 33.6025 51.1415 39.5416 43.6207 40.0548L42.1156 40.1576L42.5248 38.6286C43.9424 33.3341 43.1819 27.4288 40.4646 22.6291C37.736 17.8094 32.9373 13.9924 27.7744 12.5348C25.2022 11.8087 25.3694 12.0059 26.2281 10.711C27.1982 9.24832 29.6316 6.84742 31.2004 5.80543C35.326 3.06503 40.1501 2.01277 44.8771 2.82188ZM14.085 19.3759C12.627 20.1786 11.5343 20.9924 10.4128 22.1109C5.13342 27.3764 4.33072 35.686 8.49786 41.9322C9.67392 43.695 11.2608 45.2243 12.2076 45.5071C13.7553 45.9696 14.9205 45.2716 15.9904 43.2412L16.6326 42.0219H22.0974H27.5621L27.8546 42.751C28.5479 44.4794 29.7285 45.2881 31.2382 45.0688C31.9392 44.9669 32.1991 44.7968 33.191 43.791C37.4401 39.4817 38.548 32.5193 35.8955 26.7937C34.4631 23.7017 31.7471 20.8227 28.873 19.3497C28.1753 18.9921 27.2158 18.9828 26.5479 19.3274C25.7271 19.7507 25.5094 20.3791 25.5454 22.2229C25.5715 23.5778 25.5161 23.9617 25.2093 24.5423C23.8686 27.08 20.5748 27.5928 18.6826 25.5583C17.7032 24.5052 17.4563 23.482 17.7243 21.5855C17.8762 20.5101 17.4843 19.6789 16.6028 19.2074C15.7822 18.7684 15.1064 18.8136 14.085 19.3759ZM14.9936 22.3223C14.8509 23.0665 15.188 24.8009 15.6674 25.7907C16.2572 27.0079 17.8863 28.4906 19.1797 28.9877C19.9207 29.2724 20.559 29.3752 21.5836 29.3752C23.6097 29.3752 24.7475 28.8974 26.2208 27.4279C27.5677 26.0846 28.1198 24.8682 28.1753 23.122C28.1946 22.5167 28.2354 22.0212 28.2661 22.0208C28.477 22.0187 30.0608 23.2648 30.8577 24.0596C35.0374 28.2283 35.9098 34.5147 33.0244 39.6739C32.3721 40.8405 31.0249 42.5437 30.7548 42.5437C30.6838 42.5437 30.4073 42.0715 30.1401 41.4944C29.8438 40.8544 29.4124 40.2609 29.0334 39.9726L28.4124 39.5L22.2341 39.4501L16.0558 39.4002L15.3108 39.8357C14.713 40.1851 14.4221 40.5469 13.8371 41.6684C13.4361 42.4368 13.0403 43.0655 12.9573 43.0655C12.6992 43.0655 10.9755 41.0586 10.361 40.0425C7.19171 34.8022 8.02458 28.1293 12.3741 23.9125C13.3774 22.9399 14.7765 21.8464 15.0178 21.8464C15.0546 21.8464 15.0438 22.0605 14.9936 22.3223ZM64.0468 32.8127C67.1869 34.3928 66.6259 39.109 63.2003 39.9287C60.8999 40.479 58.4805 38.6582 58.4713 36.3693C58.4589 33.3804 61.4205 31.4912 64.0468 32.8127ZM64.5385 43.2558C65.2879 43.7047 84.4836 60.5478 85.0516 61.2548C86.0664 62.5175 84.5766 64.4721 83.1646 63.7307C82.9248 63.6049 79.5297 60.6843 75.6197 57.2406C63.2699 46.363 63.9571 46.9382 63.0855 46.7528C61.2911 46.371 61.6235 46.1338 51.6191 54.9312C46.6091 59.3366 42.291 63.1438 42.0231 63.3915C41.3697 63.9961 40.3555 64.0105 39.7296 63.4242C39.1268 62.8593 39.1002 61.6646 39.6783 61.1026C40.382 60.4184 59.3798 43.6821 59.7432 43.4261C60.9242 42.5945 63.2944 42.5103 64.5385 43.2558ZM79.1523 43.2996C79.5663 43.7797 79.5671 43.7901 79.5671 48.3272V52.8736L79.0004 52.3461C78.6886 52.056 77.433 50.938 76.2102 49.8617L73.9868 47.905V45.7765C73.9868 43.7906 74.0131 43.624 74.3792 43.292C74.9681 42.7575 75.1494 42.7218 77.0161 42.7721C78.6535 42.8163 78.7576 42.842 79.1523 43.2996ZM21.1627 49.1815C20.2517 49.5177 20.2873 48.9133 20.2813 64.1307C20.2757 78.2324 20.2782 78.3289 20.6373 78.7841C21.1097 79.3831 21.9764 79.4088 22.5124 78.8399L22.8915 78.4373V64.2185C22.8915 55.2764 22.8282 49.8817 22.7208 49.6815C22.4877 49.2471 21.6839 48.9891 21.1627 49.1815ZM60.9697 54.8896C59.1268 55.2783 57.2919 56.7407 56.4353 58.5036C56.0114 59.3761 55.9495 59.7095 55.9441 61.1539C55.9385 62.6142 55.996 62.932 56.439 63.8884C57.0312 65.1671 58.4179 66.5613 59.6433 67.1099C60.9097 67.6769 63.2953 67.7407 64.6196 67.2431C66.0234 66.7156 67.5061 65.3158 68.1621 63.8989C68.6103 62.931 68.6673 62.6177 68.6617 61.1539C68.6563 59.711 68.5942 59.3757 68.1722 58.5073C66.8812 55.8509 63.7852 54.2958 60.9697 54.8896ZM63.4514 57.5832C64.9914 58.0393 66.1394 59.6015 66.1394 61.2409C66.1394 63.3872 64.5047 64.9803 62.3029 64.9803C60.0981 64.9803 58.4603 63.3661 58.4702 61.203C58.4793 59.218 60.205 57.4463 62.2276 57.3455C62.426 57.3357 62.9767 57.4425 63.4514 57.5832ZM64.7038 75.2817C65.9155 76.0814 65.965 76.3317 65.965 81.6601V86.3734H62.3029H58.6408V81.6704C58.6408 77.3572 58.6688 76.9126 58.9794 76.3053C59.5945 75.1027 60.5315 74.7076 62.5948 74.7803C63.7862 74.8222 64.1324 74.9045 64.7038 75.2817ZM56.025 82.8948V86.3734H50.6983H45.3715L44.9436 85.9464C44.5216 85.5257 44.5155 85.4761 44.5155 82.4679V79.4163H50.2702H56.025V82.8948ZM80.0903 82.4679C80.0903 85.4761 80.0842 85.5257 79.6622 85.9464L79.2342 86.3734H73.9074H68.5808V82.8948V79.4163H74.3356H80.0903V82.4679Z" fill="black"/>
</svg>
