<svg width="31" height="31" viewBox="0 0 31 31" fill="none" xmlns="http://www.w3.org/2000/svg">
<path fill-rule="evenodd" clip-rule="evenodd" d="M3.45831 0.0461555C1.76693 0.33053 0.314595 1.81741 0.0508756 3.5347C0.00716491 3.81931 -0.00774887 7.70048 0.00370928 15.7776L0.0205631 27.6038L0.191223 28.0889C0.667615 29.443 1.57699 30.3527 2.93057 30.8293L3.41557 31H15.5103H27.605L28.09 30.8287C29.4895 30.3346 30.4544 29.3273 30.8888 27.907C30.9951 27.5592 31 27.0098 31 15.4743V3.40558L30.8293 2.9204C30.3529 1.56634 29.4436 0.656629 28.09 0.180064L27.605 0.00934276L15.6922 0.000730878C8.9678 -0.00412089 3.63952 0.0156501 3.45831 0.0461555ZM24.825 8.11179C25.0216 8.23272 25.2103 8.54948 25.2103 8.75884C25.2103 8.91791 22.1926 22.2803 22.1081 22.4955C21.9599 22.8727 21.4012 23.1443 21.0008 23.0338C20.8873 23.0024 19.7449 22.2644 18.4621 21.3937C17.1793 20.523 16.1114 19.8106 16.0891 19.8106C16.0667 19.8106 15.5522 20.2825 14.9457 20.8592C13.5483 22.1882 13.5646 22.1758 13.1974 22.1758C12.9467 22.1758 12.87 22.1458 12.6941 21.9787C12.507 21.8009 12.4053 21.5411 11.6563 19.3254C11.1996 17.9745 10.7955 16.8378 10.7582 16.7993C10.721 16.7609 9.66754 16.4517 8.41714 16.1124C6.36977 15.5566 6.12715 15.4776 5.97698 15.3171C5.87258 15.2054 5.81026 15.0716 5.81026 14.9588C5.81026 14.5253 5.56709 14.6264 13.3278 11.8322C17.279 10.4096 21.153 9.01331 21.9365 8.72936C22.7201 8.44541 23.5522 8.1483 23.7856 8.06916C24.2566 7.90947 24.513 7.92003 24.825 8.11179ZM16.575 13.4744C13.8762 15.0244 11.6463 16.3268 11.6198 16.3687C11.5932 16.4105 11.5711 16.5151 11.5706 16.6012C11.5693 16.8113 12.8704 20.6183 12.9528 20.6458C13.0313 20.672 13.0498 20.5654 13.208 19.1738C13.2763 18.5734 13.3452 18.021 13.3613 17.9463C13.3806 17.8562 14.7933 16.6638 17.5574 14.4045C19.8492 12.5311 21.7448 10.9685 21.7698 10.9318C21.8525 10.8104 21.7861 10.6834 21.6329 10.6698C21.5291 10.6605 19.9459 11.5384 16.575 13.4744Z" fill="#0EB4E8"/>
</svg>
