<svg width="31" height="31" viewBox="0 0 31 31" fill="none" xmlns="http://www.w3.org/2000/svg">
<path fill-rule="evenodd" clip-rule="evenodd" d="M2.49217 0.120466C1.90801 0.273541 1.44525 0.5433 0.995572 0.99308C0.538504 1.45019 0.275246 1.90747 0.120186 2.51378C0.00217969 2.97525 0 3.21285 0 15.4987C0 27.7846 0.00217969 28.0222 0.120186 28.4836C0.275246 29.09 0.538504 29.5472 0.995572 30.0043C1.45264 30.4615 1.90989 30.7247 2.51615 30.8798C2.97757 30.9978 3.21516 31 15.5 31C27.7848 31 28.0224 30.9978 28.4839 30.8798C29.0901 30.7247 29.5474 30.4615 30.0044 30.0043C30.4615 29.5472 30.7248 29.09 30.8798 28.4836C30.9978 28.0222 31 27.7846 31 15.4987C31 3.21285 30.9978 2.97525 30.8798 2.51378C30.7208 1.89197 30.4591 1.44492 29.9739 0.966255C29.4989 0.497765 29.1145 0.27893 28.4822 0.117196C28.0227 -0.000274572 27.7752 -0.00251499 15.4752 0.000754811C3.30568 0.00402461 2.92345 0.00753663 2.49217 0.120466ZM17.4236 6.41126C19.233 6.80588 20.6709 7.59033 21.9812 8.89752C23.2775 10.1907 24.0691 11.6466 24.4728 13.48C24.6518 14.2928 24.667 16.104 24.5017 16.9195C23.745 20.6523 20.9817 23.4345 17.3021 24.1686C16.3377 24.361 14.7823 24.3588 13.8652 24.1639C13.0634 23.9934 12.4638 23.7955 11.7975 23.4817L11.2737 23.235L8.90408 23.8555C7.60075 24.1967 6.52411 24.4656 6.51151 24.453C6.49886 24.4404 6.77338 23.3947 7.1214 22.1291L7.7543 19.8282L7.45423 19.1924C7.08289 18.4056 6.95242 18.0417 6.79185 17.3455C6.31728 15.2879 6.55032 13.2363 7.47276 11.3509C8.06061 10.1494 8.77627 9.2124 9.70912 8.4228C11.1272 7.22242 12.5893 6.58232 14.6221 6.27181C15.0777 6.20224 16.8754 6.29173 17.4236 6.41126ZM14.6221 7.81316C13.5022 7.96714 12.189 8.48614 11.2747 9.1361C8.05516 11.4249 7.13684 15.7625 9.15323 19.1568L9.40299 19.5773L9.03045 20.9388C8.82555 21.6877 8.66498 22.3075 8.6737 22.3162C8.68236 22.3249 9.31477 22.1675 10.079 21.9664L11.4685 21.6009L12.0462 21.9044C13.2223 22.5221 14.2599 22.7792 15.5908 22.7827C16.894 22.7862 17.9135 22.5401 19.0723 21.9423C21.744 20.5642 23.3811 17.5655 23.0808 14.6004C22.8933 12.7504 22.2003 11.2846 20.8965 9.98068C19.7529 8.83703 18.4684 8.15467 16.9229 7.86972C16.4118 7.7755 15.1259 7.74389 14.6221 7.81316ZM13.1909 11.2489C13.2463 11.3226 13.4793 11.8348 13.7086 12.3874L14.1255 13.3919L14.0014 13.643C13.9331 13.7811 13.752 14.0394 13.5988 14.2169C13.4456 14.3945 13.3203 14.5749 13.3203 14.6179C13.3203 14.6609 13.4602 14.9107 13.6312 15.1731C14.0113 15.7564 14.7793 16.5305 15.3486 16.904C15.9259 17.2828 16.6085 17.5821 16.7844 17.5335C16.8605 17.5125 17.123 17.2504 17.3675 16.9511C17.727 16.5111 17.8433 16.407 17.9749 16.407C18.1305 16.407 19.8737 17.2118 20.0687 17.3736C20.2037 17.4857 20.1881 18.0283 20.0384 18.4285C19.8865 18.8346 19.5702 19.1349 19.0192 19.396C18.644 19.5737 18.5753 19.5858 17.9521 19.5839C17.3538 19.5821 17.2276 19.5612 16.7109 19.3785C15.5253 18.9594 14.792 18.5506 13.9143 17.8197C12.6034 16.728 11.3044 14.9132 11.0767 13.8553C10.9737 13.3767 11.028 12.6329 11.193 12.262C11.4009 11.7945 11.7862 11.3245 12.0703 11.1917C12.425 11.026 13.0466 11.0577 13.1909 11.2489Z" fill="#4AB839"/>
</svg>
